<?xml version="1.0" encoding="utf-8"?>
<!-- Generator: Adobe Illustrator 25.0.0, SVG Export Plug-In . SVG Version: 6.00 Build 0)  -->
<svg version="1.1"
	 id="圖層_1" xmlns:inkscape="http://www.inkscape.org/namespaces/inkscape" xmlns:sodipodi="http://sodipodi.sourceforge.net/DTD/sodipodi-0.dtd"
	 xmlns="http://www.w3.org/2000/svg" xmlns:xlink="http://www.w3.org/1999/xlink" x="0px" y="0px" viewBox="0 0 1000 1000"
	 style="enable-background:new 0 0 1000 1000;" xml:space="preserve">
<style type="text/css">
	.st0{fill:#FFFFFF;}
</style>
<sodipodi:namedview  bordercolor="#666666" borderopacity="1" inkscape:current-layer="layer1" inkscape:cx="500" inkscape:cy="500" inkscape:document-rotation="0" inkscape:document-units="mm" inkscape:pageopacity="0" inkscape:pageshadow="2" inkscape:window-height="705" inkscape:window-maximized="1" inkscape:window-width="1366" inkscape:window-x="-8" inkscape:window-y="-8" inkscape:zoom=".515" pagecolor="#ffffff" showgrid="false">
	</sodipodi:namedview>
<g id="xRUvwR_1_">
	<g>
		<path class="st0" d="M531.5,674.3c33-18.5,64.3-36,95.6-53.4c57-31.8,114-63.5,171-95.2c11.7-6.5,23.3-13,35.1-19.2
			c4.7-2.4,6.7-5.2,6.7-10.9c-0.2-100-0.2-200-0.2-300c0-8.2,0-16.5,0-25.3c-226.4,0-452.1,0-679.7,0c0,8.6,0,17,0,25.5
			c0.1,76.6,0.2,153.1,0.3,229.7c0,22.6,0.1,45.1-0.4,67.7c-0.2,6.9,2.2,10.5,8.2,13.8c97.3,53.9,194.4,108.1,291.5,162.2
			c2.5,1.4,5,3,8.7,5.2C313.3,760.8,159.2,846.6,3.9,933.2c0-173.2,0-344.6,0-517.6c36.6,20.3,72.6,40.2,110.4,61.2
			c0-8.4,0.8-15.2-0.3-21.7c-0.5-2.8-4.3-5.8-7.4-7.4c-32.4-16.8-64.9-33.3-97.4-49.9c-1.3-0.7-2.6-1.4-4.9-2.8
			c4.9-3.7,9.2-7.1,13.6-10.2c29.9-21.4,59.8-42.8,90-63.9c5.1-3.6,6.5-7.5,6.4-13.3c-0.2-57.9-0.1-115.7-0.1-173.6
			c0-2.9,0-5.8,0-10.2c9.2,0,17.7,0,26.1,0c78.9,0,157.9,0.1,236.8-0.2c4.3,0,9.3-1.8,12.9-4.4c34.5-24.2,68.8-48.7,102.9-73.3
			c5.1-3.7,8.5-3.9,13.8-0.1c33.4,24.2,67.1,47.9,100.5,72.1c6.1,4.4,12.1,6.3,19.6,6.3C709.9,123.9,793,124,876,124
			c2.9,0,5.8,0,9.9,0c0,20.4,0,39.9,0,59.5c-0.1,41.8-0.1,83.7-0.5,125.5c-0.1,6,2.5,9,7,12.1c33.7,23.8,67.3,47.7,100.9,71.6
			c0.7,0.5,1.2,1.3,2.4,2.6c-16.5,8.5-32.6,16.9-48.8,25.3c-18.5,9.5-37.1,18.7-55.3,28.6c-2.7,1.5-5.1,5.5-5.6,8.6
			c-0.9,5.7-0.3,11.7-0.3,19.2c37.2-20.8,73.3-40.9,110.5-61.7c0,173.2,0,344.7,0,517.7C841.2,846.7,687.2,761,531.5,674.3z"/>
		<path class="st0" d="M975.9,957.1c-317.8,0-633,0-948.2,0c-0.2-0.5-0.3-1-0.5-1.4c7.5-4.4,14.9-8.9,22.5-13.1
			C137,894,224.4,845.4,311.7,796.9c60.1-33.4,120.2-66.8,180.2-100.5c6.1-3.4,10.6-3.6,16.8-0.1c93.1,52.2,186.3,104.2,279.6,156.2
			c59,32.9,118.2,65.7,177.2,98.5C968.2,952.4,970.9,954.1,975.9,957.1z"/>
		<path class="st0" d="M542.8,324.9c0.9-5.2,1.6-9.5,2.4-14.5c10.2,0,20.5,0,31.7,0c-0.2,3.8-0.3,7.5-0.6,11.2
			c-3,35.8-6.4,71.5-8.8,107.3c-0.6,9.5,0.6,19.6,3.2,28.9c3.8,13.6,13.1,18,26.9,14.9c10.4-2.4,19-8.3,23.6-17.5
			c6.5-12.8,13.3-26.2,15.9-40.1c5.4-28.9,3.8-57.9-8.7-85.4c-18.8-41.4-51.8-63.6-96-70.3c-42.9-6.5-83.2-0.6-117.5,27.8
			c-38.4,31.8-55.6,73.8-55,123.2c0.4,30.5,6.7,59.4,24.3,85.2c22.6,33.1,54.7,50.1,93.6,55c39.9,5,78.7,0.1,116.7-16.9
			c0,10.6,0.5,21-0.4,31.3c-0.2,2.1-6,4.6-9.5,5.3c-20.9,4.2-41.7,9.4-62.8,11.6c-41.3,4.3-81.6-1.1-117.7-22.8
			c-55.4-33.3-79.2-84.6-79.4-147.9c-0.1-44.3,11.2-85,39.9-119.9c34.3-41.7,78.7-62.9,132.4-64.3c38.7-1,75.4,6.5,108.7,27.5
			c78.9,49.9,81.9,147.7,52.7,202.1c-9.9,18.5-24.1,32.8-43.6,41.7c-35.2,15.9-65.9,3.1-78.5-33.8c-1.7,2.9-3.2,5.3-4.6,7.8
			c-24.1,41.7-82.5,43.4-108.8,3c-15.9-24.4-16.3-51.8-12.1-79.1c4.7-30.2,16.7-56.9,42.9-75.1C483.1,300.9,514.9,302,542.8,324.9z
			 M537.9,388.6c-1.3-9.3-1.8-18.8-3.9-28c-3.2-13.6-12.6-20.9-26.4-22.8c-21.5-2.9-36.7,6.7-47.4,24.4
			c-14.6,24.2-18.3,50.5-13.1,77.9c3,15.8,10.8,28.9,28,32c17.9,3.2,32.6-3,43-18.5C531.3,434,535.4,411.8,537.9,388.6z"/>
		<path class="st0" d="M537.9,388.6c-2.5,23.2-6.6,45.4-19.8,65.1c-10.4,15.4-25.1,21.7-43,18.5c-17.2-3.1-25-16.2-28-32
			c-5.2-27.4-1.5-53.8,13.1-77.9c10.7-17.7,25.9-27.3,47.4-24.4c13.8,1.9,23.2,9.2,26.4,22.8C536.1,369.7,536.6,379.2,537.9,388.6z"
			/>
	</g>
</g>
</svg>
