<?xml version="1.0" encoding="utf-8"?>
<!-- Generator: Adobe Illustrator 25.0.0, SVG Export Plug-In . SVG Version: 6.00 Build 0)  -->
<svg version="1.1"
	 id="圖層_1" xmlns:inkscape="http://www.inkscape.org/namespaces/inkscape" xmlns:sodipodi="http://sodipodi.sourceforge.net/DTD/sodipodi-0.dtd"
	 xmlns="http://www.w3.org/2000/svg" xmlns:xlink="http://www.w3.org/1999/xlink" x="0px" y="0px" viewBox="0 0 1000 1000"
	 style="enable-background:new 0 0 1000 1000;" xml:space="preserve">
<style type="text/css">
	.st0{fill:url(#SVGID_1_);}
	.st1{fill:url(#SVGID_2_);}
	.st2{fill:url(#SVGID_3_);}
	.st3{fill:url(#SVGID_4_);}
	.st4{fill:#FFFFFF;}
</style>
<sodipodi:namedview  bordercolor="#666666" borderopacity="1" inkscape:current-layer="layer1" inkscape:cx="500" inkscape:cy="500" inkscape:document-rotation="0" inkscape:document-units="mm" inkscape:pageopacity="0" inkscape:pageshadow="2" inkscape:window-height="705" inkscape:window-maximized="1" inkscape:window-width="1366" inkscape:window-x="-8" inkscape:window-y="-8" inkscape:zoom=".515" pagecolor="#ffffff" showgrid="false">
	</sodipodi:namedview>
<g inkscape:groupmode="layer" inkscape:label="Layer 1">
	
		<radialGradient id="SVGID_1_" cx="-294.5402" cy="430.9999" r="52.3515" gradientTransform="matrix(-11.7467 3.3128 2.3868 8.4629 -3520.8521 -2203.032)" gradientUnits="userSpaceOnUse">
		<stop  offset="0" style="stop-color:#FF005F"/>
		<stop  offset="1" style="stop-color:#FC01D8"/>
	</radialGradient>
	<path inkscape:connector-curvature="0" class="st0" d="M500.2,0C291.4,0,230.4,0.2,218.5,1.2C175.7,4.8,149,11.5,120,26
		C97.6,37.1,79.9,50,62.5,68c-31.7,32.9-51,73.5-57.9,121.6C1.2,213.1,0.2,217.8,0,337.3C0,377.1,0,429.5,0,499.8
		c0,208.6,0.2,269.6,1.2,281.5c3.5,41.7,10,67.9,23.8,96.6c26.5,54.9,77,96.2,136.5,111.5c20.6,5.3,43.4,8.2,72.6,9.6
		c12.4,0.5,138.6,0.9,264.9,0.9c126.3,0,252.6-0.2,264.6-0.8c33.8-1.6,53.5-4.2,75.2-9.8c59.9-15.5,109.5-56.1,136.5-111.8
		c13.6-28,20.5-55.2,23.6-94.8c0.7-8.6,1-146,1-283.2c0-137.2-0.3-274.3-1-282.9c-3.2-40.2-10-67.2-24-95.7
		c-11.5-23.4-24.3-40.8-42.8-58.7c-33.1-31.6-73.5-50.8-121.7-57.8c-23.4-3.4-28-4.4-147.5-4.6L500.2,0z"/>
	
		<radialGradient id="SVGID_2_" cx="-303.1288" cy="434.5385" r="52.3515" gradientTransform="matrix(0 -15.2473 -16.1771 0 7295.1724 -3544.875)" gradientUnits="userSpaceOnUse">
		<stop  offset="0" style="stop-color:#FFCC00"/>
		<stop  offset="0.1242" style="stop-color:#FFCC00"/>
		<stop  offset="0.5672" style="stop-color:#FE4A05"/>
		<stop  offset="0.6942" style="stop-color:#FF0F3F"/>
		<stop  offset="1" style="stop-color:#FE0657;stop-opacity:0"/>
	</radialGradient>
	<path inkscape:connector-curvature="0" class="st1" d="M500.2,0C291.4,0,230.4,0.2,218.5,1.2C175.7,4.8,149,11.5,120,26
		C97.6,37.1,79.9,50,62.5,68c-31.7,32.9-51,73.5-57.9,121.6C1.2,213.1,0.2,217.8,0,337.3C0,377.1,0,429.5,0,499.8
		c0,208.6,0.2,269.6,1.2,281.5c3.5,41.7,10,67.9,23.8,96.6c26.5,54.9,77,96.2,136.5,111.5c20.6,5.3,43.4,8.2,72.6,9.6
		c12.4,0.5,138.6,0.9,264.9,0.9c126.3,0,252.6-0.2,264.6-0.8c33.8-1.6,53.5-4.2,75.2-9.8c59.9-15.5,109.5-56.1,136.5-111.8
		c13.6-28,20.5-55.2,23.6-94.8c0.7-8.6,1-146,1-283.2c0-137.2-0.3-274.3-1-282.9c-3.2-40.2-10-67.2-24-95.7
		c-11.5-23.4-24.3-40.8-42.8-58.7c-33.1-31.6-73.5-50.8-121.7-57.8c-23.4-3.4-28-4.4-147.5-4.6L500.2,0z"/>
	
		<radialGradient id="SVGID_3_" cx="-247.6554" cy="377.2972" r="65" gradientTransform="matrix(2.549 -4.3919 -5.7178 -3.3185 3313.8345 1150.2599)" gradientUnits="userSpaceOnUse">
		<stop  offset="0" style="stop-color:#FFCC00"/>
		<stop  offset="1" style="stop-color:#FFCC00;stop-opacity:0"/>
	</radialGradient>
	<path inkscape:connector-curvature="0" class="st2" d="M500.2,0C291.4,0,230.4,0.2,218.5,1.2C175.7,4.8,149,11.5,120,26
		C97.6,37.1,79.9,50,62.5,68c-31.7,32.9-51,73.5-57.9,121.6C1.2,213.1,0.2,217.8,0,337.3C0,377.1,0,429.5,0,499.8
		c0,208.6,0.2,269.6,1.2,281.5c3.5,41.7,10,67.9,23.8,96.6c26.5,54.9,77,96.2,136.5,111.5c20.6,5.3,43.4,8.2,72.6,9.6
		c12.4,0.5,138.6,0.9,264.9,0.9c126.3,0,252.6-0.2,264.6-0.8c33.8-1.6,53.5-4.2,75.2-9.8c59.9-15.5,109.5-56.1,136.5-111.8
		c13.6-28,20.5-55.2,23.6-94.8c0.7-8.6,1-146,1-283.2c0-137.2-0.3-274.3-1-282.9c-3.2-40.2-10-67.2-24-95.7
		c-11.5-23.4-24.3-40.8-42.8-58.7c-33.1-31.6-73.5-50.8-121.7-57.8c-23.4-3.4-28-4.4-147.5-4.6L500.2,0z"/>
	
		<radialGradient id="SVGID_4_" cx="-360.7727" cy="1040.1281" r="67.081" gradientTransform="matrix(-9.0667 2.553 0.8696 3.0891 -4039.8313 -2251.2581)" gradientUnits="userSpaceOnUse">
		<stop  offset="0" style="stop-color:#780CFF"/>
		<stop  offset="1" style="stop-color:#820BFF;stop-opacity:0"/>
	</radialGradient>
	<path inkscape:connector-curvature="0" class="st3" d="M500.2,0C291.4,0,230.4,0.2,218.5,1.2C175.7,4.8,149,11.5,120,26
		C97.6,37.1,79.9,50,62.5,68c-31.7,32.9-51,73.5-57.9,121.6C1.2,213.1,0.2,217.8,0,337.3C0,377.1,0,429.5,0,499.8
		c0,208.6,0.2,269.6,1.2,281.5c3.5,41.7,10,67.9,23.8,96.6c26.5,54.9,77,96.2,136.5,111.5c20.6,5.3,43.4,8.2,72.6,9.6
		c12.4,0.5,138.6,0.9,264.9,0.9c126.3,0,252.6-0.2,264.6-0.8c33.8-1.6,53.5-4.2,75.2-9.8c59.9-15.5,109.5-56.1,136.5-111.8
		c13.6-28,20.5-55.2,23.6-94.8c0.7-8.6,1-146,1-283.2c0-137.2-0.3-274.3-1-282.9c-3.2-40.2-10-67.2-24-95.7
		c-11.5-23.4-24.3-40.8-42.8-58.7c-33.1-31.6-73.5-50.8-121.7-57.8c-23.4-3.4-28-4.4-147.5-4.6L500.2,0z"/>
	<path inkscape:connector-curvature="0" class="st4" d="M500.2,128.4c-101,0-113.6,0.4-153.3,2.2c-39.6,1.8-66.6,8.1-90.2,17.3
		c-24.5,9.5-45.2,22.2-65.9,42.8c-20.7,20.7-33.4,41.4-42.9,65.8c-9.2,23.6-15.5,50.6-17.3,90.2c-1.8,39.6-2.2,52.3-2.2,153.2
		c0,100.9,0.4,113.5,2.2,153.2c1.8,39.6,8.1,66.6,17.3,90.2c9.5,24.4,22.2,45.2,42.9,65.8c20.7,20.7,41.4,33.4,65.8,42.9
		c23.7,9.2,50.7,15.4,90.3,17.3c39.7,1.8,52.3,2.2,153.3,2.2c101,0,113.6-0.4,153.3-2.2c39.6-1.8,66.6-8.1,90.3-17.3
		c24.4-9.5,45.2-22.2,65.8-42.9c20.7-20.7,33.4-41.4,42.9-65.8c9.1-23.6,15.4-50.6,17.3-90.2c1.8-39.6,2.2-52.3,2.2-153.2
		c0-100.9-0.5-113.6-2.2-153.2c-1.9-39.6-8.1-66.6-17.3-90.2c-9.5-24.4-22.2-45.2-42.9-65.8c-20.7-20.7-41.4-33.4-65.8-42.8
		c-23.7-9.2-50.7-15.4-90.3-17.3c-39.7-1.8-52.3-2.2-153.3-2.2L500.2,128.4z M466.8,195.4c9.9,0,20.9,0,33.4,0
		c99.3,0,111,0.4,150.2,2.1c36.3,1.7,55.9,7.7,69,12.8c17.4,6.7,29.7,14.8,42.7,27.8c13,13,21.1,25.4,27.8,42.7
		c5.1,13.1,11.2,32.7,12.8,69c1.8,39.2,2.2,50.9,2.2,150.1c0,99.2-0.4,110.9-2.2,150.1c-1.7,36.2-7.7,55.9-12.8,69
		c-6.7,17.3-14.8,29.7-27.8,42.7c-13,13-25.4,21.1-42.7,27.8c-13.1,5.1-32.8,11.1-69,12.8c-39.2,1.8-51,2.2-150.2,2.2
		c-99.3,0-111-0.4-150.2-2.2c-36.3-1.7-55.9-7.7-69-12.8c-17.4-6.7-29.7-14.8-42.8-27.8c-13-13-21.1-25.4-27.8-42.7
		c-5.1-13.1-11.2-32.7-12.8-69c-1.8-39.2-2.1-50.9-2.1-150.1c0-99.2,0.4-110.9,2.1-150.1c1.7-36.2,7.7-55.9,12.8-69
		c6.7-17.3,14.8-29.7,27.8-42.7c13-13,25.4-21.1,42.8-27.8c13.1-5.1,32.8-11.1,69-12.8C384.3,195.8,397.6,195.3,466.8,195.4
		L466.8,195.4z M698.7,257c-24.6,0-44.6,19.9-44.6,44.6c0,24.6,20,44.6,44.6,44.6c24.6,0,44.6-20,44.6-44.6
		C743.3,277,723.3,257,698.7,257L698.7,257z M500.2,309.1c-105.4,0-190.9,85.4-190.9,190.8s85.5,190.8,190.9,190.8
		s190.9-85.4,190.9-190.8S605.6,309.1,500.2,309.1L500.2,309.1z M500.2,376.1c68.4,0,123.9,55.4,123.9,123.8
		c0,68.4-55.5,123.8-123.9,123.8c-68.5,0-123.9-55.5-123.9-123.8C376.3,431.5,431.8,376.1,500.2,376.1L500.2,376.1z"/>
</g>
</svg>
