<?xml version="1.0" encoding="utf-8"?>
<!-- Generator: Adobe Illustrator 25.0.0, SVG Export Plug-In . SVG Version: 6.00 Build 0)  -->
<svg version="1.1" id="圖層_1" xmlns="http://www.w3.org/2000/svg" xmlns:xlink="http://www.w3.org/1999/xlink" x="0px" y="0px"
	 viewBox="0 0 159.21 103.45" style="enable-background:new 0 0 159.21 103.45;" xml:space="preserve">
<style type="text/css">
	.st0{fill:#FFFFFF;}
</style>
<g>
	<circle class="st0" cx="79.61" cy="51.73" r="51.73"/>
	<g>
		<g>
			<path d="M4.17,58.98c11.3,0.05,22.62,0.81,33.9-0.21c2.57-0.23,5.15-0.55,7.66-1.15c2.8-0.68,5.43-1.95,7.85-3.5
				c5.73-3.69,10.96-9.56,11.43-16.65c0.21-3.23-0.8-7.44-4.71-7.61c-4.69-0.2-4.52,5.58-4.96,8.88c-1.19,8.87-1.8,17.81-3.05,26.67
				c-0.62,4.43-1.41,8.84-2.48,13.19c-1.02,4.12-2.13,8.47-4.16,12.23c-0.42,0.78-0.89,1.54-1.43,2.25c-0.53,0.69-1.4,1.92-2.26,2.2
				c-1.74,0.57-1.55-3.71-1.43-4.64c0.51-3.95,2.02-7.76,3.87-11.26c1.96-3.7,4.36-7.15,6.9-10.46c2.46-3.21,4.97-6.64,7.96-9.39
				c1.44-1.32,3.04-2.22,4.9-2.81c1.88-0.6,3.76-1.13,5.46-2.18c2.95-1.82,5.21-4.62,6.61-7.77c0.34-0.77,0.66-1.55,0.92-2.35
				c0.05-0.16,0.13-0.34,0.16-0.51c0.02-0.06,0.03-0.11,0.05-0.17c0.26-0.71-0.33-0.7-1.78,0.02c-0.13,0.48,0.27,1.47,0.36,1.95
				c0.22,1.14,0.44,2.27,0.68,3.41c0.19,0.91,0.33,1.89,0.84,2.69c2.43,3.86,7.2-0.15,9.05-2.41c2.37-2.9,3.88-6.34,6.08-9.36
				c0.19-0.27,0.58-0.94,0.9-1.05c0.19-0.06-0.02-0.18,0.22,0.15c0.14,0.19,0.22,0.46,0.32,0.67c0.44,0.92,0.89,1.84,1.33,2.75
				c0.66,1.36,1.42,4.26,3.33,4.21c1.37-0.04,2.36-1.78,3.2-2.69c0.88-0.95,1.79-1.88,2.68-2.83c1.22-1.29,2.47-2.54,3.69-3.83
				c1.34-1.42,2.91-3.02,3.6-4.88c0.59-1.59,0.25-3.44-1.22-4.43c-1.67-1.13-3.55-0.36-5.02,0.71c-2.79,2.03-4.67,5.09-5.33,8.47
				c-0.79,4.03,0.15,8.05,1.46,11.87c2.66,7.8,5.53,15.89,3.21,24.18c-0.87,3.12-2.79,7.97-6.72,7.94
				c-4.38-0.04-5.31-4.62-4.53-8.08c0.93-4.16,3.31-7.89,5.93-11.19c2.61-3.3,5.55-6.34,8.73-9.1c1.81-1.56,3.67-3.03,5.41-4.66
				c1.91-1.79,3.82-3.58,5.8-5.28c4.73-4.07,9.99-7.94,15.96-9.97c2.93-0.99,5.95-1.46,9.04-1.19c1.92,0.17,1.91-2.83,0-3
				c-12.56-1.11-23.45,8.45-31.98,16.44c-4.55,4.26-9.48,8.01-13.55,12.78c-2.7,3.16-5.23,6.56-6.89,10.39
				c-1.49,3.43-2.54,7.62-0.99,11.22c1.44,3.34,5.25,5.27,8.81,4.45c3.78-0.87,5.9-4.53,7.2-7.88c3-7.73,1.48-16.35-1.15-23.94
				c-1.38-3.98-3.19-8.06-3.04-12.36c0.12-3.3,1.58-6.65,4.31-8.61c0.38-0.28,1.5-1.22,1.85-0.49c0.34,0.69-0.86,2.02-1.24,2.5
				c-1.27,1.61-2.78,3.02-4.2,4.5c-0.88,0.91-1.74,1.84-2.62,2.76c-0.51,0.54-1.02,1.08-1.52,1.62c-0.38,0.42-1.14,0.99-1.34,1.52
				c-0.05,0.06-0.1,0.12-0.15,0.18c0.48,0.13,0.97,0.25,1.45,0.38c0-0.01-0.03-0.04-0.03-0.05c0.01-0.06-0.11-0.2-0.13-0.26
				c-0.09-0.37-0.38-0.78-0.54-1.12c-0.5-1.03-1-2.06-1.5-3.09c-0.9-1.86-1.82-4.56-4.47-3.76c-1.72,0.52-2.82,2.43-3.74,3.85
				c-1.03,1.59-1.93,3.26-2.94,4.87c-0.98,1.57-2.05,3.06-3.41,4.31c-0.56,0.51-1.45,1.33-2.26,1.33c-0.9,0-0.89-1.59-1.03-2.28
				c-0.23-1.13-0.46-2.27-0.67-3.41c-0.18-0.97-0.16-2.34-0.9-3.09c-0.59-0.6-1.51-0.72-2.25-0.37c-0.79,0.37-0.99,1.13-1.22,1.9
				c-0.99,3.27-2.84,6.45-5.69,8.43c-1.59,1.1-3.33,1.64-5.16,2.21c-1.91,0.6-3.65,1.41-5.23,2.64c-3.07,2.39-5.46,5.72-7.87,8.75
				C45.4,71.53,40.5,78.43,38.35,86.4c-0.92,3.4-1.87,8,0.81,10.88c3.18,3.4,7.14-1.64,8.68-4.23c2.13-3.59,3.32-7.81,4.39-11.82
				c1.16-4.33,2.01-8.74,2.68-13.17c1.34-8.81,1.99-17.71,3.08-26.56c0.28-2.28,0.59-4.56,0.95-6.83c0.1-0.65,0.08-1.56,0.81-1.78
				c0.75-0.23,1.46,0.24,1.8,0.88c0.72,1.34,0.58,3.35,0.33,4.8c-0.27,1.58-0.84,3.09-1.6,4.49c-3.02,5.54-8.99,10.08-15.11,11.61
				c-5.34,1.34-11.01,1.46-16.49,1.58c-6.01,0.12-12.03-0.01-18.04-0.15c-2.15-0.05-4.31-0.11-6.46-0.12
				C2.24,55.97,2.24,58.97,4.17,58.98L4.17,58.98z"/>
		</g>
		<g>
			<path d="M76.48,37.97c0.43-0.29,0.87-0.58,1.3-0.87c0.17-0.09,0.32-0.22,0.42-0.39c0.13-0.14,0.22-0.31,0.27-0.51
				c0.06-0.2,0.07-0.4,0.03-0.6c-0.01-0.2-0.07-0.39-0.18-0.56c-0.08-0.1-0.16-0.2-0.23-0.3c-0.19-0.19-0.41-0.31-0.66-0.39
				c-0.13-0.02-0.27-0.04-0.4-0.05c-0.27,0-0.52,0.07-0.76,0.2c-0.43,0.29-0.87,0.58-1.3,0.87c-0.17,0.09-0.32,0.22-0.42,0.39
				c-0.13,0.14-0.22,0.31-0.27,0.51c-0.06,0.2-0.07,0.4-0.03,0.6c0.01,0.2,0.07,0.39,0.18,0.56c0.08,0.1,0.16,0.2,0.23,0.3
				c0.19,0.19,0.41,0.31,0.66,0.39c0.13,0.02,0.27,0.04,0.4,0.05C75.99,38.18,76.24,38.11,76.48,37.97L76.48,37.97z"/>
		</g>
	</g>
</g>
</svg>
