<?xml version="1.0" encoding="utf-8"?>
<!-- Generator: Adobe Illustrator 25.0.0, SVG Export Plug-In . SVG Version: 6.00 Build 0)  -->
<svg version="1.1" id="圖層_1" xmlns="http://www.w3.org/2000/svg" xmlns:xlink="http://www.w3.org/1999/xlink" x="0px" y="0px"
	 viewBox="0 0 459.89 889.27" style="enable-background:new 0 0 459.89 889.27;" xml:space="preserve">
<style type="text/css">
	.st0{fill:#FFFFFF;}
	.st1{fill:none;stroke:#808080;stroke-miterlimit:10;}
	.st2{fill:#EDD3B2;}
	.st3{fill:#B39676;}
	.st4{fill:#966A4D;}
	.st5{fill:#EFD2B0;}
	.st6{fill:#F7EEE5;}
	.st7{fill:none;stroke:#CF6742;stroke-width:2;stroke-linecap:round;stroke-linejoin:round;stroke-miterlimit:10;}
	.st8{fill:#AF896B;}
	.st9{fill:#A78271;}
	.st10{fill:url(#SVGID_1_);}
	.st11{fill:url(#SVGID_2_);}
	.st12{fill:url(#SVGID_3_);}
	.st13{opacity:0.42;fill:url(#SVGID_4_);}
	.st14{opacity:0.42;fill:url(#SVGID_5_);}
	.st15{fill:none;stroke:#333333;stroke-width:2;stroke-linecap:round;stroke-linejoin:round;stroke-miterlimit:10;}
	.st16{fill:none;stroke:#000000;stroke-width:2;stroke-linecap:round;stroke-linejoin:round;stroke-miterlimit:10;}
	.st17{fill:none;stroke:#603813;stroke-width:2;stroke-linecap:round;stroke-linejoin:round;stroke-miterlimit:10;}
	.st18{fill:#BEA191;}
	.st19{fill:none;stroke:#FFFFFF;stroke-width:2;stroke-linecap:round;stroke-linejoin:round;stroke-miterlimit:10;}
	.st20{fill:none;stroke:url(#SVGID_6_);stroke-width:2;stroke-linecap:round;stroke-linejoin:round;stroke-miterlimit:10;}
	.st21{fill:#D3CFC4;}
	.st22{fill:#E7D0C1;}
	.st23{fill:#565250;stroke:#333333;stroke-width:3;stroke-miterlimit:10;}
	.st24{fill:#727272;stroke:#333333;stroke-width:3;stroke-miterlimit:10;}
	.st25{opacity:0.43;fill:#565250;}
</style>
<g>
	<path class="st0" d="M229.95,746.65L229.95,746.65c-113.76,0-206.84-93.08-206.84-206.84V230.37
		c0-113.76,93.08-206.84,206.84-206.84h0c113.76,0,206.84,93.08,206.84,206.84v309.43C436.79,653.57,343.71,746.65,229.95,746.65z"
		/>
	<path class="st1" d="M229.95,769.68L229.95,769.68C103.75,769.68,0.5,666.43,0.5,540.23l0-310.29C0.5,103.75,103.75,0.5,229.95,0.5
		h0c126.2,0,229.45,103.25,229.45,229.45v310.29C459.39,666.43,356.14,769.68,229.95,769.68z"/>
	<g>
		<path class="st2" d="M112.27,770.29c0,0-6.18,3.04-10.5,9.85c-4.33,6.81-15.24,29.61-34.04,36.99c0,0-23.29,7.57-30.15,28.59
			c0,0-1.76,9.17-1.76,20.86c0,0,6.35,19.92,37.78,21.62s37.87-26.94,52.16-39.91s19.22-17.13,20.28-18.41
			c1.06-1.28,12.02-12.2,12.23-33.88c0,0,2.94-14.65-4.94-17.01C145.44,776.63,125.74,760.01,112.27,770.29z"/>
		<path class="st3" d="M153.24,821.28c-2.77,5.13-5.54,7.95-6.04,8.55c-1.06,1.28-5.98,5.44-20.28,18.4
			c-14.29,12.97-20.73,41.61-52.16,39.91c-31.43-1.7-37.78-21.62-37.78-21.62c0-7.24,0.68-13.52,1.2-17.25
			c0.74,2.88,5.95,19.84,26.73,23.64c25.33,4.63,47.03-16.99,51.58-25.33c4.64-8.49,19.49-15.9,26.3-18.38
			C146.76,827.76,150.67,824.08,153.24,821.28z"/>
		<path class="st4" d="M166.14,627.86c0,0,0.45,15.02,8.18,22.5c7.73,7.49,70.9,36.56,70.9,36.56l-26.43-66.33
			C218.79,620.6,174.87,611.39,166.14,627.86z"/>
		<path class="st5" d="M227.02,668.46c-4.51-2-9.78-3.31-15.76-3.17c-9.33,0.22-12.41-0.3-13.24-0.84l-9.67,32.75
			c4.94-1.1,10.02-2.72,12.94-5.64C208.98,681.94,215.83,671.9,227.02,668.46z"/>
		<path class="st3" d="M198.02,664.45l0.29-0.98C198.3,663.47,197.28,663.97,198.02,664.45z"/>
		<path class="st3" d="M244.16,682.28c-2.49-3.44-8.36-9.93-17.14-13.82c-11.19,3.44-18.04,13.48-25.74,23.1
			c-2.92,2.92-8,4.54-12.94,5.64l-15.36,51.99c0,0,0.65,10.89,16.34,10.62c15.69-0.28,23.23-16.06,24.48-18.16
			c1.25-2.1,10.48-20.53,11.39-21.8c0.9-1.27,11.82-16.54,16.15-18.77S247.92,687.48,244.16,682.28z"/>
		<path class="st6" d="M118.93,597.92c13.15,3.76,21,14.58,31.86,21.67l15.36-2.51l-47.93-61.31l-13.68,5.12
			c0,0-15.64,4.41-20.91,13.89c-5.26,9.47-9.82,31.12,6.01,49.05c1.54,1.74,3.1,3.4,4.69,5.02
			C104.73,620.42,112.93,609.91,118.93,597.92z"/>
		<path class="st0" d="M150.78,619.58c-10.86-7.08-18.71-17.91-31.86-21.67c-5.99,11.99-14.2,22.5-24.6,30.92
			c13.98,14.23,30.14,24.1,51.27,35.7c0.82-17.23,17.41-28.36,17.41-28.36l-13.67-16.36L150.78,619.58z"/>
		<path class="st7" d="M105.62,637.35c0,0,16.88-8.45,25.19-33.5"/>
		<path class="st6" d="M229.31,661.51c-4.02-4.9-7.99-8.88-10.89-10.24c-7.77-3.65-13.04-30.31-18.61-32.1
			c-2.9-0.94-10.48,0.49-17.89,2.71c-0.47,0.33-30.7,21.7-33.98,32.47c-1.36,4.47-6.16,23.26-11.64,44.44
			c4.7,20.09,28.89,28.23,48.52,23.24c5.82-15.22,11.12-32.68,14.17-51.12C199,670.91,214.36,663.62,229.31,661.51z"/>
		<path class="st0" d="M136.31,698.8c-7.85,30.32-17.09,65.55-19.64,70.69c0.96-0.21,1.93-0.37,2.9-0.5
			c2.41-0.32,4.93-0.48,7.2,0.55c2.13,0.97,3.84,2.9,5.48,4.78c3.05,3.48,6.27,7.39,6.75,12.38c0.42,4.36-1.36,8.55-3.08,12.42
			l-0.65,1.08c3.51,1.59,6.32,0.75,9.66-1.48c4.1-2.73,6.09-4.44,8.87-8.5c0,0-1.4-7.66,4.18-15c3.54-4.67,16.09-25.1,26.84-53.2
			C165.2,727.02,141.01,718.89,136.31,698.8z"/>
		<g>
			<path class="st8" d="M166.99,626.75c0.03-0.18,0.06-0.37,0.09-0.56c0.49-2.87,8.44-9.69,17-16.31l-0.09-0.12l-30.48,12.41
				l-3.33-3.46c0.2-7.13-5.81-24.72-5.81-24.72c-15.83-31.14-41.22-36.37-48.35-34.91c-7.13,1.46-8.56,10.59-8.56,10.59l4.22-9.9
				l118.84-63.95l94.1,24.45l12.11,40.49c6.15,12.3,12.99,34.77,8.42,47.84c-5.48,15.67-23.89,31.45-29.06,33.24
				c-5.17,1.79-19.13,15.25-28.12,23.64c-8.99,8.39-21.76,18.5-21.76,18.5c-3.11-8.59-18.69-31.08-26.45-34.73
				s-13.04-30.31-18.6-32.1C195.59,615.35,172.87,622.23,166.99,626.75L166.99,626.75z"/>
		</g>
		<g>
			<g>
				<path class="st9" d="M127.94,346.91c-11.1-4.83-8.13-19.91-2.13-30.42s16.38-17.75,23.71-27.38
					c25.02-32.84,8.18-65.03,31.55-99.06c11.9-17.33,32.13-27.12,52.42-32.61c12.75-3.45,26.01-5.51,39.18-4.52
					c12.9,0.97,25.58,4.89,36.77,11.38c8.43,4.89,16.07,11.27,21.9,19.08c6.77,9.06,11,19.81,17.73,28.9
					c4.88,6.58,11.05,12.26,14.88,19.5c9.27,17.53,2.65,38.84-3.61,57.65s-9.17,30.15,1.89,46.6c2.62,3.9,9.57,12.47,9.25,17.15
					c-0.81,11.49-13.48,14.33-15.93,15.38c-30.39,13.11-56.65-15.96-85.31,0.6c-21.22,12.26-32.67,9.11-44.41,7.55
					c-5.22-0.69-10.06-3.02-14.97-4.92c-18.68-7.21-38.67-27-57.95-21.6c-4.43,1.24-8.87,2.82-13.47,2.79
					c-4.6-0.03-9.55-2.09-11.47-6.27"/>
			</g>
			<g>
				
					<linearGradient id="SVGID_1_" gradientUnits="userSpaceOnUse" x1="1359.9097" y1="82.3368" x2="1444.2507" y2="-74.3519" gradientTransform="matrix(0.9407 0.3393 -0.3393 0.9407 -1060.788 -188.8221)">
					<stop  offset="0" style="stop-color:#695355"/>
					<stop  offset="1" style="stop-color:#A37F6D"/>
				</linearGradient>
				<path class="st10" d="M127.94,346.91c-11.1-4.83-8.13-19.91-2.13-30.42s16.38-17.75,23.71-27.38
					c25.02-32.84,8.18-65.03,31.55-99.06c11.9-17.33,32.13-27.12,52.42-32.61c12.75-3.45,26.01-5.51,39.18-4.52
					c12.9,0.97,25.58,4.89,36.77,11.38c8.43,4.89,16.07,11.27,21.9,19.08c6.77,9.06,11,19.81,17.73,28.9
					c4.88,6.58,11.05,12.26,14.88,19.5c9.27,17.53,2.65,38.84-3.61,57.65s-9.17,30.15,1.89,46.6c2.62,3.9,9.57,12.47,9.25,17.15
					c-0.81,11.49-13.48,14.33-15.93,15.38c-30.39,13.11-56.65-15.96-85.31,0.6c-21.22,12.26-32.67,9.11-44.41,7.55
					c-5.22-0.69-10.06-3.02-14.97-4.92c-18.68-7.21-38.67-27-57.95-21.6c-4.43,1.24-8.87,2.82-13.47,2.79
					c-4.6-0.03-9.55-2.09-11.47-6.27"/>
			</g>
			<g>
				<path class="st6" d="M220.9,386.34c8.73-22.49,2.28-24.59-3.55-27.75c-5.83-3.16-27.3-5.14-40.53-25.95
					c-16.84-26.49,9.4-94.5,9.4-94.5s5.18-4.45,14.4-1.94c9.22,2.5,16.55,7.29,23.87,5.12c7.32-2.17,36.81-29.29,37.64-37.74
					c0,0,7.62-7.15,11.91,6.08c7,21.56,20.82,41.22,23.53,45.19c2.72,3.97,16.24,26.49,8.1,42.64
					c-8.14,16.14-13.83,19.17-8.17,20.61c0,0,6.13-2.9,10-0.44c3.87,2.46,5.73,12.1,3.21,18.17c-2.52,6.07-11.1,11.55-22.06,6.64
					c0,0-13.56,15.06-18.86,16.71s-14.29,5.83-14.29,5.83s-2.07,2-2.29,6.48c-0.22,4.48,1.83,14.12,1.83,14.12"/>
			</g>
			
				<linearGradient id="SVGID_2_" gradientUnits="userSpaceOnUse" x1="1389.756" y1="110.884" x2="1478.3824" y2="-53.7661" gradientTransform="matrix(0.9407 0.3393 -0.3393 0.9407 -1060.788 -188.8221)">
				<stop  offset="0" style="stop-color:#695355"/>
				<stop  offset="1" style="stop-color:#A37F6D"/>
			</linearGradient>
			<path class="st11" d="M299.07,313.71c0,0-15.01-10.53-23.6,5.9c0,0,11.09-9.41,22.49-2.83"/>
			
				<linearGradient id="SVGID_3_" gradientUnits="userSpaceOnUse" x1="1324.4757" y1="75.7455" x2="1413.1022" y2="-88.9046" gradientTransform="matrix(0.9407 0.3393 -0.3393 0.9407 -1060.788 -188.8221)">
				<stop  offset="0" style="stop-color:#695355"/>
				<stop  offset="1" style="stop-color:#A37F6D"/>
			</linearGradient>
			<path class="st12" d="M252.07,205.08c0,0-24.44,19.92-29.76,32.01c-1.95,4.43,13.65,9.35,12.64,9.66
				c-3.77,1.14,29.53-13.41,33.9-39.04c0,0,3.58,23.6-6.79,38.66c0,0,8.83-0.79,14.43,2.16c5.6,2.94,16.44,7.17,24.26,4.61
				c7.81-2.56,0.84-55.47,0.84-55.47S263.21,173.96,252.07,205.08z"/>
			
				<linearGradient id="SVGID_4_" gradientUnits="userSpaceOnUse" x1="1402.7919" y1="15.8974" x2="1436.6201" y2="15.8974" gradientTransform="matrix(0.9407 0.3393 -0.3393 0.9407 -1060.788 -188.8221)">
				<stop  offset="0" style="stop-color:#F3CF91"/>
				<stop  offset="1" style="stop-color:#F0B163"/>
			</linearGradient>
			<path class="st13" d="M286.57,308.99c-0.44,6.2-8.51,10.68-18.03,10.01c-9.52-0.67-16.89-6.24-16.45-12.43
				c0.44-6.2,8.51-10.68,18.03-10.01S287,302.8,286.57,308.99z"/>
			
				<linearGradient id="SVGID_5_" gradientUnits="userSpaceOnUse" x1="1323.4452" y1="30.231" x2="1347.5114" y2="30.231" gradientTransform="matrix(0.9407 0.3393 -0.3393 0.9407 -1060.788 -188.8221)">
				<stop  offset="0" style="stop-color:#F3CF91"/>
				<stop  offset="1" style="stop-color:#F0B163"/>
			</linearGradient>
			<path class="st14" d="M197.11,294.83c-1.03,5.72-7.19,9.39-13.75,8.21c-6.56-1.18-11.04-6.78-10.01-12.49
				c1.03-5.72,7.19-9.39,13.75-8.21C193.66,283.52,198.14,289.12,197.11,294.83z"/>
			<path class="st15" d="M301.56,326.55c0,0-3.72-0.49-6.18,1.77c-1.62,1.49-2.36,3.8-2.03,5.36c0.83,3.91,6.96,4.34,6.63,0.47
				s-4.09-5.24-5.22-4.77"/>
			<path class="st16" d="M204.41,317.83c2.35,3.09,4.84,4.02,7.74,4.73c5.42,1.33,11.57,1.55,16.15-1.64
				c-0.12,1.15-1.43,2.02-2.54,1.69"/>
			<path class="st16" d="M244.33,272.48c0,0,9.22-7.82,18.89-2.73c9.68,5.09,8.37,15.45,8.37,15.45"/>
			<path d="M272.48,284.84c-1.09,6.06-9.13,10.31-15.46,9.16c-6.33-1.14-10.58-6.98-9.49-13.03c1.09-6.06,7.44-11.87,13.77-10.73
				C267.64,271.39,273.58,278.78,272.48,284.84z"/>
			<path class="st16" d="M185.46,261.42c0,0,8.16-7.4,16.59-2.75c8.43,4.65,7.17,14.34,7.17,14.34"/>
			<path d="M210,272.67c-1.02,5.67-8.11,9.72-13.65,8.72s-9.2-6.4-8.17-12.07c1.02-5.67,6.65-11.16,12.18-10.17
				S211.02,267,210,272.67z"/>
			<path class="st17" d="M218.48,276.7c0,0,7.24-6.92,11.05-0.05"/>
			<path class="st17" d="M287.36,285.95c-1.08,15.42-16.73,27.98-32.15,26.89c-15.42-1.08-27.04-14.46-25.95-29.88
				c1.08-15.42,10.04-26.8,25.46-25.71C270.14,258.33,288.45,270.53,287.36,285.95z"/>
			<path class="st17" d="M218.5,265.79c3.44,14.36-5.48,29.89-18.03,32.9s-24.18-4.78-27.63-19.14
				c-3.44-14.36,2.74-26.72,15.29-29.73S215.05,251.43,218.5,265.79z"/>
			<path class="st15" d="M268.95,206.23c-5.12,17.4-17.75,32.45-34,40.52"/>
			<path class="st15" d="M177.88,240.74c9.42-5.73,21.55-6.19,31.88-2.33c4.79,1.79,9.86,4.48,14.72,2.9"/>
			<path class="st15" d="M223.9,241.51c9.91-5.69,18.01-14.5,22.85-24.86"/>
			<path class="st15" d="M268.67,207.62c0.75,15.78,1.88,25.43-6.62,38.75c4.37-0.08,8.75,0.49,12.95,1.7
				c3.71,1.07,7.28,2.63,11,3.67c5.94,1.66,12.26,1.99,18.34,0.93"/>
			<path class="st15" d="M297.56,254.84c3.88,6.46,7.5,13.19,9.37,20.5c1.87,7.3,1.89,15.29-1.27,22.14
				c-2.6,5.64-5.56,9.91-8.54,15.36"/>
			<path class="st15" d="M253.41,377.62c11.19-5.43,22.32-10.85,34.74-10.37c6.72,0.26,13.22,2.29,19.79,3.7
				c9.05,1.95,18.35,2.76,27.61,2.39c11.92-0.47,24.61-3.35,32.6-12.21"/>
			<path class="st15" d="M351.82,209.87c16.72,22.47,21.38,53.4,12.03,79.81c-2.45,6.92-5.8,13.56-7.26,20.75
				c-1.46,7.19-0.71,15.34,4.2,20.79c1.58,1.76,3.59,3.24,4.55,5.4c0.86,1.93,0.79,4.23,1.9,6.03c0.65,1.06,1.64,1.85,2.45,2.79
				c2.48,2.89,2.98,7.33,1.21,10.71"/>
			<path class="st15" d="M163.15,245.31c-0.86-34.72,34.04-85.07,71.84-93.16c21.23-4.54,43.58-1.49,64.14,5.47
				c13.38,4.53,26.51,11.02,35.95,21.53c7.74,8.62,12.78,16.54,13.93,28.07"/>
			<path class="st18" d="M218.54,392.5"/>
			<g>
				<path class="st0" d="M335.57,228.11c3.68,5.24,6.86,10.85,9.35,16.78c2.46,5.94,4.22,12.2,5.03,18.63
					c0.82,6.41,0.78,13.02-0.69,19.37c-0.74,3.17-1.74,6.28-3.1,9.22l-1.07,2.18l-1.17,2.12l-1.31,2.04
					c-0.46,0.66-0.94,1.31-1.42,1.95c-0.03,0.04-0.1,0.05-0.14,0.02c-0.04-0.03-0.05-0.08-0.03-0.12l0,0
					c0.36-0.72,0.72-1.43,1.09-2.13l1-2.17l0.93-2.19l0.83-2.22c1.03-2.98,1.86-6.02,2.44-9.11c1.16-6.16,1.64-12.49,1.06-18.78
					c-0.6-6.29-2.13-12.5-4.37-18.44c-2.22-5.96-5.14-11.66-8.59-17.04c-0.03-0.05-0.02-0.11,0.03-0.14
					C335.47,228.05,335.53,228.07,335.57,228.11z"/>
			</g>
			<g>
				<path class="st0" d="M333.29,261.64c0.97,2.63,1.69,5.36,2.2,8.14c0.48,2.78,0.73,5.61,0.76,8.45c-0.01,2.84,0,5.7-0.76,8.51
					c-0.39,1.4-0.9,2.79-1.66,4.05c-0.75,1.26-1.75,2.4-2.97,3.17c-0.05,0.03-0.11,0.02-0.14-0.03c-0.02-0.04-0.02-0.08,0-0.11
					c1.61-2.31,2.35-4.87,2.82-7.51c0.43-2.65,0.93-5.37,1.11-8.12c0.17-2.75,0.12-5.51-0.15-8.27c-0.24-2.76-0.74-5.5-1.4-8.21
					c-0.01-0.05,0.02-0.11,0.07-0.12C333.22,261.57,333.27,261.59,333.29,261.64z"/>
			</g>
			<g>
				<path class="st0" d="M261.66,211.29c-0.71,3.74-1.8,7.44-3.39,10.95c-0.78,1.76-1.67,3.47-2.64,5.14
					c-0.99,1.67-1.97,3.3-3.21,4.86c-1.3,1.52-2.69,2.81-4.12,4.1c-1.43,1.27-2.88,2.52-4.39,3.7c-1.5,1.19-3.04,2.33-4.64,3.39
					c-0.8,0.53-1.62,1.03-2.48,1.48c-0.85,0.44-1.72,0.9-2.7,1.07c-0.05,0.01-0.11-0.03-0.12-0.08c-0.01-0.05,0.02-0.09,0.06-0.11
					l0.01,0c1.71-0.74,3.13-2.04,4.58-3.22c1.44-1.22,2.83-2.49,4.23-3.77c2.74-2.56,5.53-5.21,7.99-7.9
					c1.15-1.39,2.37-2.86,3.42-4.4c1.06-1.54,2.03-3.15,2.92-4.8c1.75-3.32,3.25-6.81,4.29-10.46c0.02-0.05,0.07-0.08,0.12-0.07
					C261.64,211.19,261.67,211.24,261.66,211.29z"/>
			</g>
			<g>
				<path class="st0" d="M220.74,190.27c-2.29,4.24-4.2,8.67-6.41,12.98c-2.23,4.3-4.8,8.46-7.79,12.32
					c-0.76,0.95-1.5,1.92-2.31,2.84c-0.78,0.94-1.59,1.86-2.43,2.74c-1.63,1.84-3.62,3.42-5.67,4.77c-2.08,1.34-4.28,2.49-6.62,3.31
					c-2.32,0.81-4.87,1.33-7.3,0.86c-0.05-0.01-0.09-0.06-0.08-0.12c0.01-0.05,0.05-0.08,0.1-0.08c2.4-0.07,4.64-0.94,6.75-1.94
					c2.11-1.04,4.13-2.28,6.03-3.66c1.92-1.38,3.71-2.85,5.36-4.54c1.73-1.64,3.35-3.4,4.91-5.2c3.08-3.64,5.77-7.62,8.16-11.78
					c2.42-4.15,4.6-8.48,7.12-12.6c0.03-0.05,0.09-0.06,0.14-0.03C220.75,190.16,220.77,190.22,220.74,190.27z"/>
			</g>
			<g>
				<path class="st0" d="M149.62,340c-3.24-0.35-6.15-2.45-7.99-5.18c-1.86-2.77-2.52-6.22-2.34-9.52c0.18-3.3,1.02-6.62,2.61-9.49
					c1.57-2.88,3.52-5.45,5.72-7.81c0.04-0.04,0.1-0.04,0.14,0c0.03,0.03,0.04,0.08,0.02,0.11c-1.29,2.97-2.85,5.74-4.1,8.58
					c-1.24,2.83-2.46,5.67-2.81,8.74c-0.35,3.02,0.05,6.2,1.6,8.86c1.49,2.66,4.04,4.89,7.17,5.51c0.05,0.01,0.09,0.06,0.08,0.12
					C149.72,339.97,149.67,340.01,149.62,340z"/>
			</g>
			<path class="st19" d="M267,275.09"/>
			<path class="st19" d="M203.42,269.78"/>
			
				<linearGradient id="SVGID_6_" gradientUnits="userSpaceOnUse" x1="1026.1625" y1="-463.0553" x2="1025.4816" y2="-459.591" gradientTransform="matrix(0.6908 0.7231 -0.7231 0.6908 -832.2044 -121.6859)">
				<stop  offset="0" style="stop-color:#F3CF91"/>
				<stop  offset="1" style="stop-color:#F0B163"/>
			</linearGradient>
			<path class="st20" d="M208.63,299.67c0.03,0.49,0.15,0.97,0.34,1.43c0.24,0.56,0.61,1.09,1.12,1.43s1.17,0.47,1.7,0.24"/>
			<path class="st15" d="M297.49,318.08c-2.95-3.02-7.6-3.99-11.75-3.16c-4.15,0.83-7.83,3.25-10.91,6.14
				c1.94-4.96,5.88-9.61,11.14-10.4c3.85-0.57,7.66,0.99,11.23,2.52"/>
			<path class="st15" d="M163.37,251.61c-2.64,19.66-11.74,38.41-25.56,52.64c-3.64,3.75-7.66,7.27-10.15,11.86
				c-3.4,6.26-3.55,13.76-3.01,20.86c0.28,3.61,0.86,7.53,3.5,10.02c2.01,1.9,4.86,2.59,7.61,2.96c5.5,0.74,11.14,0.47,16.55-0.81"
				/>
		</g>
		<path class="st6" d="M126.47,438.89l0.52,11.08c-1.46-7.44,0.3-8.72-9.07-26.41c-9.37-17.69-11.16-34.87-10.61-46.87
			c0.19-4.27-0.31-5.58,6.16-16.41c6.47-10.84,4.18-9.19,6.13-13.23c2.07-4.29,0.9-7.78-2.35-4.71c-3.25,3.07-6.56,5.36-9.32,6.51
			c0,0-1.93-12.94-1.8-14.99c0.13-2.05,1.03-15.1,1.26-17.93c0.22-2.83-0.07-5.19-2.2-5.58c-2.13-0.39-2.54,1.29-3.01,2.09
			c-0.47,0.8-2.93,17.32-3.34,19.11c-0.41,1.79-1.94,1.32-2.09,0.69c-0.65-2.88-1.87-16.78-2.04-20.13
			c-0.18-3.67-0.08-7.25-3.73-6.82c-3.65,0.43-2.89,5.72-2.89,5.72l0.44,22.86l-1.54,0.1c-0.86-2.45-3.84-15.24-4.3-18.4
			c-0.49-3.46-0.7-6.86-4.3-6.15c-3.6,0.7-2.4,5.65-2.4,5.65l2.4,21.61l-1.14,0.58c0,0-2.92-8.34-3.52-10.51
			c-0.6-2.17-2.02-5.76-4.1-4.78c-2.08,0.98-1.11,4.65-1.11,4.65s3.29,12.62,3.77,15.78c0.48,3.16-1.95,8.23,2.69,19.54
			c4.64,11.31,7.4,7.14,8.05,16.59c0.64,9.45-1.44,77.51,12.1,103.24c15.55,29.54,29.92,16.75,47.47,4.59l25.04-15.63"/>
		<path class="st6" d="M225.83,376.74l-7.19,1.51c0,0-12.12,23.3,14.01,27.89c26.12,4.59,30.01-18.65,30.01-18.65l-8.02-3.88"/>
		<path class="st21" d="M263.92,385.68c-0.07,0.13-0.14,0.25-0.21,0.37"/>
		<path class="st21" d="M270.79,390.2c0.76-1.1,1.18-1.77,1.18-1.77"/>
		<path class="st22" d="M368.95,523.35c0,0-12.38-6.63-32.98-6.03c-20.6,0.6-36.14,8.04-36.14,8.04l3.33,25.82l-168.1-7.32
			l1.1-27.02c0,0,12.86-19.51,4.3-47.09c-2.25-7.25-8.12-21.84-14.11-26.92l-1.78-5.48c0,0,44.77-37.31,53.61-42.91
			c8.84-5.6,37.07-14.38,37.07-14.38c0.52-0.59,2.77-0.85,3.48-0.89c0,0,0.48-0.11,0.48,0.27s-6.76,12.09,0.43,21.48
			c7.16,9.34,28.03,12.6,44.07-14.89c0.74-1.21,1.31-1.55,1.81-1.47c0.5,0.08,5.88,2.3,6.45,2.76c0.57,0.47,0,1.09,0,1.09
			s34.43,9.52,42.3,16.78c7.86,7.27,13.64,13.12,15.77,19.8c2.12,6.68,8.03,30.44,12.55,35.86
			C347.1,466.29,366.73,511.7,368.95,523.35z"/>
		<path class="st15" d="M218.64,378.25c0,0,2.52,0,4.48-1.21"/>
		<polygon class="st23" points="245.97,648.61 298.06,571.74 159.7,526.87 86.35,558.72 		"/>
		<path class="st15" d="M263.84,384.6c0.74-1.2,1.31-1.54,1.81-1.47c0.5,0.08,5.88,2.29,6.45,2.76c0.57,0.47,0,1.09,0,1.09
			s-9.22,14.56-18.19,20.02c-8.44,5.14-21.12,8.09-32.23,4.52c-11.34-3.65-12.24-17.68-10.99-23.13c1.25-5.45,3.21-8.09,4.67-9.76
			c0.52-0.6,2.77-0.84,3.48-0.89c0,0,0.48-0.11,0.48,0.27c0,0.39-6.76,12.1,0.43,21.49c7.19,9.39,28.22,12.62,44.29-15.26"/>
		<path class="st15" d="M215.37,378.63c0,0-28.23,8.78-37.07,14.37s-53.6,42.91-53.6,42.91"/>
		<path class="st15" d="M290.32,453.54c4.08-14.21,4.82-20.33,17.89-27.24"/>
		<path class="st15" d="M126.47,442.95"/>
		<path class="st15" d="M119.42,499.74c3.33,8.94,8.84,18.25,16.86,15.66c0,0,41.08-33.13,42.74-36.16"/>
		<path class="st15" d="M183.11,430.47c0,0-5.78,55.71-4.79,58.69c0.98,2.98,6.91,4.73,8.4,11.67c1.49,6.94-0.68,13.11,1.76,16.61
			c2.44,3.5,4.42,5.9,11.01,8.78s15.75,10.18,30.31,9.34c14.56-0.84,17.18-4.77,26.88-2.38c9.7,2.38,14.72,5.19,19.98,3.26"/>
		<path class="st15" d="M86.61,570.78c0,0,1.43-9.13,8.56-10.59c7.13-1.46,32.53,3.77,48.35,34.91c0,0,6.01,16.81,5.81,23.95"/>
		<path class="st15" d="M104.53,560.89c0,0-15.64,4.41-20.91,13.89c-5.26,9.47-9.82,31.12,6.01,49.05
			c15.05,17.04,32.43,27.8,55.96,40.72"/>
		<line class="st15" x1="152.66" y1="623.28" x2="183.14" y2="610.87"/>
		<path class="st15" d="M166.72,633.12c-0.58-0.85-1.06-2.53-0.49-5.83c1.09-6.34,38.63-32.04,38.63-32.04"/>
		<path class="st15" d="M315.89,561.86c6.15,12.3,12.99,34.77,8.42,47.84c-5.48,15.67-23.89,31.45-29.06,33.24
			c-5.17,1.79-19.13,15.25-28.12,23.64c-8.99,8.39-21.76,18.5-21.76,18.5c-3.11-8.59-18.69-31.08-26.45-34.73
			c-7.77-3.65-13.04-30.31-18.6-32.1c-5.57-1.79-28.28,5.09-34.16,9.61"/>
		<path class="st15" d="M199.49,669.99c0,0,15.36-7.3,30.31-9.4"/>
		<path class="st15" d="M163,636.18c-3.88-4.45-7.23-8.65-10.34-12.9c-10.79-14.75-46.28-35.27-46.28-35.27"/>
		<path class="st15" d="M192.38,703.07c8.06-2.46,15.28-7.59,20.25-14.4c2.27-3.1,4.09-6.56,6.77-9.32
			c3.59-3.71,8.64-5.97,13.8-6.17c1.49-0.06,3.02,0.06,4.35,0.73c1.53,0.77,2.64,2.18,3.54,3.64c5.84,9.42,7.08,18.38-1.94,25.51
			c-4.95,3.91-11.22,12.94-14.87,18.08c-2.15,3.03-3.36,6.61-4.88,10c-3.41,7.6-10.73,20.09-17.48,24.96
			c-8.82,6.36-26.8,4.65-28.93-5.85"/>
		<path class="st15" d="M193.69,695.92c0,0,6.95-3.2,10.18-6.87c3.22-3.67,4.32-8.65,10.78-14.68s12.13-5.73,12.13-5.73"/>
		<path class="st15" d="M237.55,673.91c0,0-11.73-6.6-17.49-7.33c-5.76-0.73-11.01-0.5-11.01-0.5"/>
		<path class="st15" d="M105.62,780.4c0.16-3.85,2.4-7.25,5.18-9.21c2.78-1.96,6.04-2.69,9.25-3.12c2.42-0.32,4.94-0.48,7.21,0.55
			c2.13,0.97,3.83,2.9,5.48,4.78c3.04,3.48,6.27,7.39,6.75,12.38c0.42,4.36-1.35,8.55-3.08,12.43"/>
		<path class="st15" d="M154.3,789.31c-2.79,4.06-4.77,5.78-8.87,8.5c-3.49,2.32-6.39,3.13-10.13,1.25
			c-1.43-0.72-4.4-1.02-5.99-0.86c-0.97,0.1-1.8,0.73-2.55,1.36c-2.08,1.78-3.92,3.82-5.47,6.08c0,0-20.57,17.84-26.17,21.82
			c-5.6,3.97-5.8,6.35-2.51,8.66c3.29,2.3,6.64,1.84,8.98,8.38c0.88,2.47,2.13,10.25,2.13,10.25"/>
		<path class="st15" d="M155.33,780.14c0,0,5.59,4.48,3.36,13.51c-2.23,9.03-9.05,11.99-9.05,11.99"/>
		<path class="st15" d="M157.08,808.48c-7.26,3.29-13.02,9.73-15.47,17.31"/>
		<path class="st15" d="M105.62,780.4c3.58,2.12,0.39,8.96-4.38,15.97c-5.73,8.42-12.3,15.07-19.13,22.55
			c-1.07,1.17-3.8,3.11-6.51,1.76c-3.87-1.94-4.89-3.55-7.88-3.55c0,0-23.29,7.57-30.15,28.59c0,0-1.76,9.17-1.76,20.86
			c0,0,6.35,19.92,37.78,21.62s37.87-26.94,52.16-39.91s19.22-17.13,20.28-18.41c1.06-1.28,12.02-12.2,12.23-33.88"/>
		<path class="st15" d="M75.6,820.68c-3.87-1.94-4.89-3.55-7.88-3.55"/>
		<path class="st15" d="M105.62,780.4c3.58,2.12,0.39,8.96-4.38,15.97"/>
		<path class="st15" d="M36.9,848.9c0,0,4.11,19.91,26.84,24.07c25.33,4.63,47.03-16.99,51.58-25.33
			c4.64-8.49,19.49-15.9,26.29-18.38c6.8-2.49,11.71-10.42,11.71-10.42"/>
		<path class="st15" d="M112.27,770.29c0,0-6.18,3.04-10.5,9.85c-4.33,6.81-15.24,29.61-34.04,36.99"/>
		<path class="st15" d="M48.73,836.72c0,0,10.86,30.03,46.38,9.55"/>
		<path class="st15" d="M79.56,817.13c0,0,8.4,0.17,15.55,15.06"/>
		<path class="st15" d="M86.58,810.11c0,0,12.7,1.06,17.96,15.57"/>
		<path class="st15" d="M103.1,787.56c3.45-0.98,9.81,4.03,14.17,7s8.21,6.84,10.6,11.54"/>
		<path class="st15" d="M98.48,795.1c4.39-1.64,18.1,7.57,20.93,17.18"/>
		<path class="st15" d="M92.94,802.96c3.88-1.44,16.46,7.74,20.3,16.41"/>
		<path class="st15" d="M95.17,560.19c0,0,49.24-25.38,59.26-27.37s11.05-7.42,17.25-5.95c6.2,1.47,17.15,0,17.15,0l2.33-6.01"/>
		<line class="st15" x1="219.39" y1="679.35" x2="241.88" y2="700.5"/>
		<line class="st15" x1="212.63" y1="688.67" x2="232.88" y2="709.56"/>
		<line class="st15" x1="201.74" y1="698.77" x2="224.28" y2="721.13"/>
		<line class="st15" x1="190.74" y1="705.74" x2="217.41" y2="735.23"/>
		<line class="st15" x1="180.96" y1="731.92" x2="201.91" y2="756.09"/>
		<path class="st15" d="M186.38,718.33l23.85,28.75"/>
		<path class="st15" d="M136.48,699.12c0,0,2.24,26.99,48.3,23.44"/>
		<path class="st7" d="M133.5,718.2c0,0,9.87,22.11,43.59,18.46"/>
		<path class="st15" d="M94.37,628.9c0,0,15.23-9.04,24.51-31.12"/>
		<g>
			<path class="st15" d="M127.52,449.97c-1.46-7.44,0.3-8.72-9.07-26.41s-11.15-34.87-10.61-46.88c0.19-4.27-0.31-5.57,6.16-16.41
				c6.47-10.83,4.18-9.18,6.13-13.23c2.07-4.29,0.9-7.78-2.35-4.71c-3.25,3.07-6.55,5.36-9.31,6.51c-2.76,1.15-5.73-0.92-10.41,4.77
				"/>
			<path class="st15" d="M143.14,486.35c-17.55,12.16-31.92,24.94-47.47-4.59c-13.54-25.73-11.46-93.78-12.11-103.24
				c-0.65-9.46-3.41-5.28-8.05-16.59s-2.2-16.39-2.68-19.54c-0.48-3.15-3.77-15.78-3.77-15.78s-0.97-3.67,1.11-4.65
				s3.5,2.61,4.11,4.78c0.6,2.17,3.52,10.51,3.52,10.51l1.14-0.58l-2.4-21.61c0,0-1.2-4.95,2.39-5.65s3.8,2.7,4.3,6.15
				c0.45,3.16,3.44,15.95,4.3,18.4l1.54-0.1L88.63,311c0,0-0.75-5.29,2.89-5.72c3.65-0.43,3.55,3.16,3.73,6.82
				c0.17,3.35,1.39,17.26,2.04,20.13c0.14,0.63,1.68,1.11,2.09-0.69c0.41-1.79,2.87-18.31,3.34-19.11c0.47-0.8,0.88-2.47,3.01-2.08
				s2.42,2.75,2.2,5.58s-1.13,15.88-1.25,17.93c-0.13,2.05,1.8,14.99,1.8,14.99"/>
		</g>
		<g>
			<path class="st15" d="M127.52,449.97c-1.46-7.44,0.3-8.72-9.07-26.41s-11.15-34.87-10.61-46.88c0.19-4.27-0.31-5.57,6.16-16.41
				c6.47-10.83,4.18-9.18,6.13-13.23c2.07-4.29,0.9-7.78-2.35-4.71c-3.25,3.07-6.55,5.36-9.31,6.51c-2.76,1.15-5.73-0.92-10.41,4.77
				"/>
			<path class="st15" d="M143.14,486.35c-17.55,12.16-31.92,24.94-47.47-4.59c-13.54-25.73-11.46-93.78-12.11-103.24
				c-0.65-9.46-3.41-5.28-8.05-16.59s-2.2-16.39-2.68-19.54c-0.48-3.15-3.77-15.78-3.77-15.78s-0.97-3.67,1.11-4.65
				s3.5,2.61,4.11,4.78c0.6,2.17,3.52,10.51,3.52,10.51l1.14-0.58l-2.4-21.61c0,0-1.2-4.95,2.39-5.65s3.8,2.7,4.3,6.15
				c0.45,3.16,3.44,15.95,4.3,18.4l1.54-0.1L88.63,311c0,0-0.75-5.29,2.89-5.72c3.65-0.43,3.55,3.16,3.73,6.82
				c0.17,3.35,1.39,17.26,2.04,20.13c0.14,0.63,1.68,1.11,2.09-0.69c0.41-1.79,2.87-18.31,3.34-19.11c0.47-0.8,0.88-2.47,3.01-2.08
				s2.42,2.75,2.2,5.58s-1.13,15.88-1.25,17.93c-0.13,2.05,1.8,14.99,1.8,14.99"/>
		</g>
		<path class="st15" d="M136.29,515.4c0,0,12.86-19.51,4.3-47.09c-2.25-7.26-8.12-21.85-14.12-26.92"/>
		<path class="st15" d="M316.04,385.12"/>
		<path class="st6" d="M312.64,524.97c-19.96,4.02-61.32,21.27-61.32,21.27s-10.31,0.83-14.83,4.03c-4.52,3.2-17.7,12.81-17.7,12.81
			l19,19.8c0.98-2.41,7.69-7.8,7.69-7.8c4.67-2.53,25.53-5.16,25.53-5.16c55.67-5.41,75.35-20.64,76.63-28.21
			s-5.64-25.99-5.64-25.99l-30,3.77L312.64,524.97z"/>
		<path class="st15" d="M272.11,386.99c0,0,34.44,9.51,42.3,16.78c7.86,7.27,13.65,13.12,15.77,19.8
			c2.12,6.68,8.03,30.44,12.55,35.86c4.52,5.42,24.15,50.84,26.37,62.48c0,0-12.38-6.63-32.98-6.03c-20.6,0.6-36.14,8.04-36.14,8.04
			s-3.99-17.28-2.98-26.25s-3.28-25.05-4.32-28.48s-2.16-11.41-2.16-11.41"/>
		<path class="st15" d="M347.56,537.08c10.32-0.92,14.55-10.06,21.53-15.17"/>
		<path class="st15" d="M299.96,523.92c0,0,2.4,1.06,6.38,2.3"/>
		<path class="st15" d="M251.08,546.46c0,0,41.35-17.25,61.32-21.27c1.11-0.22,2.15-0.41,3.12-0.54"/>
		<line class="st15" x1="311.76" y1="519.7" x2="312.4" y2="525.2"/>
		<path class="st15" d="M341.76,515.93c0,0,6.91,18.43,5.64,25.99s-20.95,22.8-76.63,28.21c0,0-20.86,2.63-25.53,5.16
			c0,0-6.72,5.39-7.69,7.8"/>
		<path class="st15" d="M186.21,238.13c0,0-26.24,68.02-9.4,94.5c13.23,20.81,34.7,22.79,40.53,25.95
			c5.83,3.16,12.28,5.26,3.55,27.75"/>
		<path class="st15" d="M297.17,318.54c10.98-7.48,18.85,5.73,13,18.52c-5.85,12.79-22.36,5.03-22.36,5.03
			c-11.32,20.11-29.12,19.13-32.72,23.29c-3.59,4.15-1.61,16.28-1.61,16.28s-0.09,3.18,9.17,5.83"/>
		<path class="st15" d="M182.42,620.95c0,0-30.68,21.62-33.98,32.48c-3.3,10.86-26.96,106.4-31.29,115.13"/>
		<path class="st15" d="M154.3,789.31c0,0-1.41-7.66,4.18-15s33.51-53.8,41.55-107.73"/>
		<polygon class="st24" points="71.51,447.53 279.41,506.98 245.97,648.61 66.19,579.8 		"/>
		<circle class="st25" cx="164.28" cy="545.08" r="14.94"/>
	</g>
</g>
</svg>
