<?xml version="1.0" encoding="utf-8"?>
<!-- Generator: Adobe Illustrator 25.0.0, SVG Export Plug-In . SVG Version: 6.00 Build 0)  -->
<svg version="1.1" id="圖層_1" xmlns="http://www.w3.org/2000/svg" xmlns:xlink="http://www.w3.org/1999/xlink" x="0px" y="0px"
	 viewBox="0 0 500.8 767.86" style="enable-background:new 0 0 500.8 767.86;" xml:space="preserve">
<style type="text/css">
	.st0{fill:#FFFFFF;}
	.st1{fill:none;stroke:#808080;stroke-miterlimit:10;}
	.st2{fill:#EDD3B2;}
	.st3{fill:#B39676;}
	.st4{fill:#966A4D;}
	.st5{fill:#EFD2B0;}
	.st6{fill:#F7EEE5;}
	.st7{fill:none;stroke:#CF6742;stroke-width:2;stroke-linecap:round;stroke-linejoin:round;stroke-miterlimit:10;}
	.st8{fill:#AF896B;}
	.st9{fill:#A78271;}
	.st10{fill:url(#SVGID_1_);}
	.st11{fill:url(#SVGID_2_);}
	.st12{fill:url(#SVGID_3_);}
	.st13{opacity:0.42;fill:url(#SVGID_4_);}
	.st14{opacity:0.42;fill:url(#SVGID_5_);}
	.st15{fill:none;stroke:#333333;stroke-width:2;stroke-linecap:round;stroke-linejoin:round;stroke-miterlimit:10;}
	.st16{fill:none;stroke:#000000;stroke-width:2;stroke-linecap:round;stroke-linejoin:round;stroke-miterlimit:10;}
	.st17{fill:none;stroke:#603813;stroke-width:2;stroke-linecap:round;stroke-linejoin:round;stroke-miterlimit:10;}
	.st18{fill:#BEA191;}
	.st19{fill:none;stroke:#FFFFFF;stroke-width:2;stroke-linecap:round;stroke-linejoin:round;stroke-miterlimit:10;}
	.st20{fill:none;stroke:url(#SVGID_6_);stroke-width:2;stroke-linecap:round;stroke-linejoin:round;stroke-miterlimit:10;}
	.st21{fill:#D3CFC4;}
	.st22{fill:#E7D0C1;}
	.st23{fill:#565250;stroke:#333333;stroke-width:3;stroke-miterlimit:10;}
	.st24{fill:#727272;stroke:#333333;stroke-width:3;stroke-miterlimit:10;}
	.st25{opacity:0.43;fill:#565250;}
</style>
<g>
	<g>
		<g>
			<path class="st0" d="M191.31,650.62L191.31,650.62c83.92,0,152.59-68.67,152.59-152.59V269.75
				c0-83.92-68.67-152.59-152.59-152.59h0c-83.92,0-152.59,68.67-152.59,152.59v228.28C38.72,581.95,107.38,650.62,191.31,650.62z"
				/>
			<path class="st1" d="M191.31,667.61L191.31,667.61c93.1,0,169.27-76.17,169.27-169.27V269.44c0-93.1-76.17-169.27-169.27-169.27
				h0c-93.1,0-169.27,76.17-169.27,169.27v228.91C22.04,591.44,98.21,667.61,191.31,667.61z"/>
		</g>
		<g>
			<path class="st2" d="M284.9,671.86c0,0,4.97,2.45,8.46,7.93c3.48,5.49,12.27,23.84,27.41,29.79c0,0,18.75,6.1,24.28,23.02
				c0,0,1.42,7.39,1.42,16.79c0,0-5.11,16.04-30.42,17.41c-25.31,1.37-30.49-21.69-42-32.13c-11.51-10.44-15.48-13.79-16.33-14.82
				c-0.85-1.03-9.68-9.82-9.85-27.28c0,0-2.37-11.8,3.98-13.7C258.19,676.97,274.05,663.59,284.9,671.86z"/>
			<path class="st3" d="M251.9,712.92c2.23,4.13,4.46,6.4,4.86,6.89c0.85,1.03,4.82,4.38,16.33,14.82
				c11.51,10.44,16.69,33.5,42,32.13c25.31-1.37,30.42-17.41,30.42-17.41c0-5.83-0.55-10.89-0.96-13.89
				c-0.6,2.32-4.79,15.98-21.53,19.04c-20.39,3.73-37.86-13.68-41.53-20.39c-3.74-6.84-15.69-12.8-21.17-14.8
				C257.13,718.14,253.97,715.17,251.9,712.92z"/>
			<path class="st4" d="M241.52,557.18c0,0-0.36,12.09-6.59,18.12c-6.22,6.03-57.09,29.44-57.09,29.44l21.28-53.4
				C199.12,551.34,234.49,543.92,241.52,557.18z"/>
			<path class="st5" d="M192.5,589.87c3.63-1.61,7.88-2.67,12.69-2.55c7.51,0.18,9.99-0.24,10.66-0.68l7.79,26.37
				c-3.98-0.88-8.07-2.19-10.42-4.54C207.03,600.73,201.51,592.64,192.5,589.87z"/>
			<path class="st3" d="M215.85,586.64l-0.23-0.79C215.62,585.86,216.45,586.26,215.85,586.64z"/>
			<path class="st3" d="M178.7,601c2-2.77,6.73-8,13.8-11.13c9.01,2.77,14.52,10.85,20.72,18.6c2.35,2.35,6.44,3.66,10.42,4.54
				l12.36,41.86c0,0-0.53,8.77-13.16,8.55c-12.63-0.22-18.7-12.93-19.71-14.62c-1-1.69-8.44-16.53-9.17-17.55
				c-0.73-1.03-9.51-13.32-13.01-15.11C177.48,614.34,175.67,605.19,178.7,601z"/>
			<path class="st6" d="M279.54,533.07c-10.59,3.02-16.91,11.74-25.65,17.45l-12.37-2.02l38.59-49.36l11.02,4.12
				c0,0,12.6,3.55,16.83,11.18c4.24,7.63,7.91,25.06-4.84,39.49c-1.24,1.4-2.5,2.74-3.78,4.04
				C290.97,551.19,284.36,542.73,279.54,533.07z"/>
			<path class="st0" d="M253.89,550.52c8.74-5.7,15.06-14.42,25.65-17.45c4.83,9.65,11.43,18.12,19.81,24.89
				c-11.25,11.46-24.27,19.41-41.28,28.75c-0.66-13.87-14.01-22.83-14.01-22.83l11.01-13.17L253.89,550.52z"/>
			<path class="st7" d="M290.25,564.82c0,0-13.59-6.8-20.28-26.97"/>
			<path class="st6" d="M190.66,584.27c3.23-3.95,6.44-7.15,8.77-8.24c6.26-2.94,10.5-24.4,14.98-25.85
				c2.34-0.76,8.43,0.39,14.4,2.18c0.38,0.27,24.72,17.47,27.36,26.15c1.09,3.6,4.96,18.73,9.37,35.78
				c-3.78,16.18-23.26,22.73-39.07,18.71c-4.69-12.26-8.96-26.32-11.41-41.16C215.06,591.85,202.69,585.97,190.66,584.27z"/>
			<path class="st0" d="M265.54,614.3c6.32,24.42,13.76,52.78,15.82,56.92c-0.77-0.17-1.56-0.3-2.33-0.4
				c-1.94-0.26-3.97-0.39-5.8,0.45c-1.71,0.78-3.09,2.34-4.41,3.85c-2.45,2.8-5.05,5.95-5.44,9.97c-0.34,3.51,1.09,6.88,2.48,10
				l0.52,0.87c-2.83,1.28-5.09,0.6-7.78-1.19c-3.3-2.2-4.9-3.58-7.14-6.84c0,0,1.13-6.17-3.37-12.08
				c-2.85-3.76-12.96-20.21-21.61-42.83C242.28,637.02,261.76,630.47,265.54,614.3z"/>
			<g>
				<path class="st8" d="M240.83,556.29c-0.02-0.15-0.04-0.3-0.07-0.45c-0.4-2.31-6.79-7.8-13.68-13.13l0.07-0.1l24.54,9.99
					l2.68-2.78c-0.16-5.74,4.67-19.9,4.67-19.9c12.74-25.07,33.19-29.28,38.93-28.11c5.74,1.17,6.89,8.52,6.89,8.52l-3.4-7.98
					l-95.69-51.49l-75.77,19.69l-9.75,32.6c-4.95,9.9-10.46,27.99-6.78,38.52c4.41,12.62,19.24,25.32,23.4,26.76
					c4.16,1.44,15.4,12.28,22.64,19.03c7.24,6.76,17.52,14.9,17.52,14.9c2.5-6.91,15.05-25.02,21.3-27.96
					c6.26-2.94,10.5-24.4,14.98-25.85C217.81,547.11,236.1,552.65,240.83,556.29L240.83,556.29z"/>
			</g>
			<g>
				<g>
					<path class="st9" d="M272.28,330.97c8.93-3.89,6.55-16.03,1.72-24.49s-13.19-14.29-19.09-22.04
						c-20.14-26.44-6.59-52.36-25.4-79.76c-9.58-13.95-25.87-21.84-42.21-26.26c-10.27-2.78-20.94-4.44-31.55-3.64
						c-10.39,0.78-20.59,3.94-29.61,9.17c-6.79,3.94-12.94,9.07-17.64,15.36c-5.45,7.29-8.85,15.95-14.28,23.27
						c-3.93,5.3-8.9,9.87-11.98,15.7c-7.46,14.11-2.14,31.27,2.91,46.42c5.04,15.15,7.38,24.27-1.52,37.52
						c-2.11,3.14-7.71,10.04-7.44,13.81c0.65,9.26,10.86,11.53,12.83,12.39c24.47,10.55,45.61-12.85,68.69,0.49
						c17.08,9.87,26.3,7.33,35.76,6.08c4.2-0.56,8.1-2.43,12.05-3.96c15.04-5.8,31.13-21.74,46.66-17.39
						c3.57,1,7.14,2.27,10.85,2.25c3.71-0.02,7.69-1.68,9.24-5.05"/>
				</g>
				<g>
					
						<linearGradient id="SVGID_1_" gradientUnits="userSpaceOnUse" x1="4982.4331" y1="-1220.2209" x2="5050.3423" y2="-1346.3821" gradientTransform="matrix(-0.9407 0.3393 0.3393 0.9407 5322.7876 -209.0365)">
						<stop  offset="0" style="stop-color:#695355"/>
						<stop  offset="1" style="stop-color:#A37F6D"/>
					</linearGradient>
					<path class="st10" d="M272.28,330.97c8.93-3.89,6.55-16.03,1.72-24.49s-13.19-14.29-19.09-22.04
						c-20.14-26.44-6.59-52.36-25.4-79.76c-9.58-13.95-25.87-21.84-42.21-26.26c-10.27-2.78-20.94-4.44-31.55-3.64
						c-10.39,0.78-20.59,3.94-29.61,9.17c-6.79,3.94-12.94,9.07-17.64,15.36c-5.45,7.29-8.85,15.95-14.28,23.27
						c-3.93,5.3-8.9,9.87-11.98,15.7c-7.46,14.11-2.14,31.27,2.91,46.42c5.04,15.15,7.38,24.27-1.52,37.52
						c-2.11,3.14-7.71,10.04-7.44,13.81c0.65,9.26,10.86,11.53,12.83,12.39c24.47,10.55,45.61-12.85,68.69,0.49
						c17.08,9.87,26.3,7.33,35.76,6.08c4.2-0.56,8.1-2.43,12.05-3.96c15.04-5.8,31.13-21.74,46.66-17.39
						c3.57,1,7.14,2.27,10.85,2.25c3.71-0.02,7.69-1.68,9.24-5.05"/>
				</g>
				<g>
					<path class="st6" d="M197.43,362.72c-7.03-18.11-1.84-19.8,2.86-22.35c4.69-2.54,21.98-4.14,32.63-20.9
						c13.56-21.33-7.56-76.09-7.56-76.09s-4.17-3.58-11.59-1.57c-7.42,2.02-13.33,5.87-19.22,4.12
						c-5.89-1.75-29.64-23.58-30.3-30.39c0,0-6.13-5.75-9.59,4.9c-5.64,17.36-16.76,33.19-18.95,36.38
						c-2.19,3.19-13.08,21.33-6.52,34.33c6.56,13,11.14,15.44,6.58,16.59c0,0-4.93-2.34-8.05-0.36s-4.61,9.74-2.58,14.63
						c2.03,4.89,8.93,9.3,17.76,5.34c0,0,10.92,12.12,15.18,13.45c4.26,1.33,11.51,4.7,11.51,4.7s1.67,1.61,1.85,5.22
						c0.18,3.61-1.47,11.37-1.47,11.37"/>
				</g>
				
					<linearGradient id="SVGID_2_" gradientUnits="userSpaceOnUse" x1="5006.4648" y1="-1197.2355" x2="5077.8242" y2="-1329.807" gradientTransform="matrix(-0.9407 0.3393 0.3393 0.9407 5322.7876 -209.0365)">
					<stop  offset="0" style="stop-color:#695355"/>
					<stop  offset="1" style="stop-color:#A37F6D"/>
				</linearGradient>
				<path class="st11" d="M134.49,304.24c0,0,12.09-8.48,19,4.75c0,0-8.93-7.58-18.11-2.28"/>
				
					<linearGradient id="SVGID_3_" gradientUnits="userSpaceOnUse" x1="4953.9028" y1="-1225.5281" x2="5025.2627" y2="-1358.0995" gradientTransform="matrix(-0.9407 0.3393 0.3393 0.9407 5322.7876 -209.0365)">
					<stop  offset="0" style="stop-color:#695355"/>
					<stop  offset="1" style="stop-color:#A37F6D"/>
				</linearGradient>
				<path class="st12" d="M172.33,216.77c0,0,19.68,16.04,23.96,25.78c1.57,3.57-10.99,7.53-10.17,7.78
					c3.04,0.92-23.77-10.8-27.29-31.43c0,0-2.88,19,5.47,31.13c0,0-7.11-0.63-11.62,1.74c-4.51,2.37-13.24,5.77-19.53,3.71
					s-0.68-44.66-0.68-44.66S163.36,191.72,172.33,216.77z"/>
				
					<linearGradient id="SVGID_4_" gradientUnits="userSpaceOnUse" x1="5016.9609" y1="-1273.7159" x2="5044.1982" y2="-1273.7159" gradientTransform="matrix(-0.9407 0.3393 0.3393 0.9407 5322.7876 -209.0365)">
					<stop  offset="0" style="stop-color:#F3CF91"/>
					<stop  offset="1" style="stop-color:#F0B163"/>
				</linearGradient>
				<path class="st13" d="M144.55,300.44c0.35,4.99,6.85,8.6,14.52,8.06s13.6-5.02,13.25-10.01c-0.35-4.99-6.85-8.6-14.52-8.06
					C150.13,290.97,144.2,295.45,144.55,300.44z"/>
				
					<linearGradient id="SVGID_5_" gradientUnits="userSpaceOnUse" x1="4953.0732" y1="-1262.1749" x2="4972.4507" y2="-1262.1749" gradientTransform="matrix(-0.9407 0.3393 0.3393 0.9407 5322.7876 -209.0365)">
					<stop  offset="0" style="stop-color:#F3CF91"/>
					<stop  offset="1" style="stop-color:#F0B163"/>
				</linearGradient>
				<path class="st14" d="M216.58,289.04c0.83,4.6,5.79,7.56,11.07,6.61c5.28-0.95,8.89-5.46,8.06-10.06
					c-0.83-4.6-5.79-7.56-11.07-6.61C219.36,279.93,215.75,284.43,216.58,289.04z"/>
				<path class="st15" d="M132.48,314.58c0,0,2.99-0.4,4.97,1.42c1.31,1.2,1.9,3.06,1.63,4.31c-0.66,3.15-5.61,3.49-5.34,0.38
					s3.29-4.22,4.21-3.84"/>
				<path class="st16" d="M210.71,307.55c-1.89,2.49-3.9,3.24-6.24,3.81c-4.36,1.07-9.32,1.25-13-1.32c0.1,0.93,1.15,1.63,2.04,1.36
					"/>
				<path class="st16" d="M178.57,271.04c0,0-7.42-6.29-15.21-2.2s-6.74,12.44-6.74,12.44"/>
				<path d="M155.89,280.99c0.88,4.88,7.35,8.3,12.45,7.38c5.1-0.92,8.52-5.62,7.64-10.49c-0.88-4.88-5.99-9.56-11.09-8.64
					C159.8,270.16,155.01,276.12,155.89,280.99z"/>
				<path class="st16" d="M225.97,262.14c0,0-6.57-5.96-13.35-2.21c-6.78,3.74-5.77,11.54-5.77,11.54"/>
				<path d="M206.2,271.19c0.82,4.56,6.53,7.83,10.99,7.02c4.46-0.8,7.4-5.16,6.58-9.72c-0.82-4.56-5.35-8.99-9.81-8.19
					C209.51,261.11,205.38,266.63,206.2,271.19z"/>
				<path class="st17" d="M199.38,274.44c0,0-5.83-5.57-8.9-0.04"/>
				<path class="st17" d="M143.91,281.88c0.87,12.41,13.47,22.53,25.88,21.65s21.77-11.64,20.9-24.06
					c-0.87-12.41-8.09-21.58-20.5-20.7C157.78,259.65,143.04,269.47,143.91,281.88z"/>
				<path class="st17" d="M199.36,265.65c-2.77,11.56,4.41,24.06,14.51,26.49c10.1,2.42,19.47-3.85,22.24-15.41
					c2.77-11.56-2.21-21.52-12.31-23.94C213.7,250.37,202.13,254.09,199.36,265.65z"/>
				<path class="st15" d="M158.74,217.7c4.12,14.01,14.29,26.13,27.38,32.62"/>
				<path class="st15" d="M232.07,245.48c-7.59-4.61-17.35-4.98-25.67-1.88c-3.85,1.44-7.94,3.61-11.85,2.34"/>
				<path class="st15" d="M195.01,246.11c-7.98-4.59-14.5-11.68-18.4-20.02"/>
				<path class="st15" d="M158.97,218.82c-0.61,12.71-1.52,20.48,5.33,31.2c-3.52-0.07-7.05,0.4-10.43,1.37
					c-2.99,0.86-5.86,2.11-8.86,2.95c-4.78,1.34-9.87,1.6-14.76,0.75"/>
				<path class="st15" d="M135.71,256.83c-3.12,5.2-6.04,10.62-7.54,16.5c-1.51,5.88-1.52,12.31,1.02,17.83
					c2.09,4.54,4.47,7.98,6.88,12.36"/>
				<path class="st15" d="M171.25,355.7c-9.01-4.37-17.97-8.74-27.98-8.35c-5.41,0.21-10.64,1.84-15.94,2.98
					c-7.29,1.57-14.78,2.22-22.23,1.93c-9.59-0.38-19.82-2.7-26.25-9.83"/>
				<path class="st15" d="M92.02,220.63c-13.46,18.09-17.22,43-9.69,64.26c1.97,5.57,4.67,10.92,5.85,16.71
					c1.18,5.79,0.57,12.35-3.38,16.74c-1.28,1.42-2.89,2.61-3.66,4.35c-0.69,1.56-0.64,3.4-1.53,4.86
					c-0.52,0.85-1.32,1.49-1.97,2.25c-2,2.33-2.4,5.9-0.98,8.62"/>
				<path class="st15" d="M243.93,249.16c0.69-27.95-27.4-68.5-57.84-75.01c-17.09-3.66-35.09-1.2-51.65,4.4
					c-10.77,3.65-21.35,8.87-28.94,17.34c-6.23,6.94-10.29,13.32-11.22,22.6"/>
				<path class="st18" d="M199.33,367.68"/>
				<g>
					<path class="st0" d="M105.25,235.41c-2.75,4.34-5.08,8.94-6.84,13.74c-1.79,4.78-3,9.78-3.46,14.83
						c-0.47,5.06,0,10.12,0.89,15.07c0.91,4.96,2.55,9.77,4.88,14.38c0.03,0.05,0.01,0.11-0.04,0.14c-0.04,0.02-0.09,0.01-0.12-0.03
						c-3.29-4.03-5.47-8.96-6.67-14.07c-1.22-5.13-1.18-10.48-0.52-15.65c0.68-5.19,2.12-10.23,4.12-15.02
						c2.03-4.77,4.62-9.28,7.6-13.49c0.03-0.05,0.09-0.06,0.14-0.02C105.27,235.31,105.28,235.37,105.25,235.41z"/>
				</g>
				<g>
					<path class="st0" d="M107.11,262.36c-0.51,2.19-0.88,4.4-1.05,6.62c-0.2,2.22-0.22,4.44-0.06,6.64c0.16,2.2,0.62,4.38,0.93,6.5
						c0.35,2.12,0.88,4.14,2.1,6.08c0.03,0.05,0.02,0.11-0.03,0.14c-0.03,0.02-0.07,0.02-0.11,0c-1.02-0.58-1.87-1.49-2.5-2.51
						c-0.64-1.02-1.08-2.14-1.41-3.28c-0.65-2.28-0.59-4.6-0.58-6.89c0.04-2.29,0.27-4.58,0.67-6.82c0.44-2.24,1.04-4.43,1.85-6.54
						c0.02-0.05,0.08-0.08,0.13-0.06C107.1,262.27,107.12,262.32,107.11,262.36z"/>
				</g>
				<g>
					<path class="st0" d="M164.78,221.73c0.87,2.93,2.12,5.72,3.54,8.38c0.72,1.32,1.52,2.61,2.38,3.83
						c0.85,1.22,1.86,2.39,2.77,3.5c1.97,2.14,4.2,4.29,6.38,6.37c1.11,1.04,2.22,2.07,3.36,3.07c1.15,0.97,2.28,2.04,3.63,2.66
						l0.01,0.01c0.05,0.02,0.07,0.08,0.05,0.13c-0.02,0.04-0.06,0.06-0.11,0.06c-0.8-0.12-1.51-0.48-2.21-0.82
						c-0.7-0.35-1.37-0.75-2.02-1.17c-1.31-0.83-2.56-1.74-3.78-2.69c-1.22-0.94-2.4-1.94-3.56-2.96c-1.16-1.04-2.28-2.07-3.34-3.31
						c-1.01-1.28-1.78-2.6-2.57-3.96c-0.77-1.36-1.48-2.75-2.1-4.17c-1.26-2.84-2.1-5.84-2.64-8.86c-0.01-0.05,0.03-0.11,0.08-0.12
						C164.72,221.65,164.77,221.68,164.78,221.73z"/>
				</g>
				<g>
					<path class="st0" d="M197.71,204.75c2.06,3.31,3.83,6.78,5.8,10.11c1.94,3.34,4.12,6.52,6.61,9.43
						c1.26,1.44,2.57,2.84,3.97,4.15c1.33,1.35,2.76,2.5,4.29,3.64c1.52,1.12,3.12,2.13,4.8,2.98c1.69,0.82,3.45,1.56,5.39,1.66
						c0.06,0,0.1,0.05,0.1,0.1c0,0.05-0.04,0.09-0.08,0.1c-1.96,0.43-4.05,0.05-5.93-0.59c-1.91-0.64-3.7-1.56-5.39-2.63
						c-1.68-1.07-3.28-2.38-4.6-3.87c-0.68-0.71-1.32-1.46-1.95-2.23c-0.65-0.74-1.24-1.53-1.85-2.3c-2.4-3.13-4.45-6.5-6.23-9.97
						c-1.76-3.49-3.27-7.06-5.09-10.49c-0.03-0.05-0.01-0.11,0.04-0.14C197.62,204.69,197.68,204.71,197.71,204.75z"/>
				</g>
				<g>
					<path class="st0" d="M254.8,325.23c2.5-0.55,4.52-2.33,5.69-4.47c1.22-2.13,1.52-4.66,1.22-7.07
						c-0.29-2.44-1.32-4.68-2.28-6.96c-0.97-2.29-2.19-4.54-3.14-6.98c-0.02-0.05,0.01-0.11,0.06-0.13c0.04-0.02,0.08,0,0.11,0.02
						c1.87,1.84,3.48,3.89,4.77,6.21c1.31,2.31,1.95,5.03,2.08,7.71c0.13,2.68-0.43,5.48-1.96,7.73c-1.51,2.2-3.88,3.9-6.51,4.14
						c-0.06,0-0.1-0.04-0.11-0.09C254.71,325.28,254.75,325.24,254.8,325.23z"/>
				</g>
				<path class="st19" d="M160.31,273.14"/>
				<path class="st19" d="M211.5,268.87"/>
				
					<linearGradient id="SVGID_6_" gradientUnits="userSpaceOnUse" x1="3715.8713" y1="-3215.4126" x2="3715.2478" y2="-3212.241" gradientTransform="matrix(-0.6908 0.7231 0.7231 0.6908 5096.6626 -172.1876)">
					<stop  offset="0" style="stop-color:#F3CF91"/>
					<stop  offset="1" style="stop-color:#F0B163"/>
				</linearGradient>
				<path class="st20" d="M207.31,292.93c-0.02,0.39-0.12,0.78-0.28,1.15c-0.19,0.45-0.49,0.88-0.9,1.15
					c-0.41,0.27-0.94,0.37-1.37,0.19"/>
				<path class="st15" d="M135.76,307.75c2.38-2.44,6.12-3.21,9.46-2.54c3.34,0.67,6.3,2.61,8.78,4.95
					c-1.56-3.99-4.73-7.74-8.97-8.37c-3.1-0.46-6.16,0.8-9.04,2.03"/>
				<path class="st15" d="M243.75,254.23c2.12,15.83,9.45,30.92,20.58,42.38c2.93,3.02,6.16,5.85,8.17,9.55
					c2.74,5.04,2.86,11.08,2.42,16.8c-0.22,2.91-0.69,6.06-2.81,8.07c-1.62,1.53-3.92,2.09-6.12,2.39
					c-4.43,0.6-8.97,0.38-13.33-0.65"/>
			</g>
			<path class="st6" d="M273.46,405.03l-0.42,8.92c1.18-5.99-0.24-7.02,7.3-21.26c7.54-14.24,8.98-28.08,8.54-37.74
				c-0.15-3.44,0.25-4.49-4.96-13.21c-5.21-8.73-3.37-7.4-4.94-10.65c-1.67-3.45-0.72-6.27,1.89-3.8c2.62,2.47,5.28,4.31,7.5,5.24
				c0,0,1.55-10.42,1.45-12.07c-0.11-1.65-0.83-12.16-1.01-14.44c-0.18-2.28,0.05-4.18,1.77-4.49c1.71-0.31,2.05,1.04,2.42,1.68
				c0.38,0.64,2.36,13.94,2.69,15.38c0.33,1.44,1.56,1.06,1.68,0.55c0.52-2.32,1.5-13.51,1.64-16.21c0.15-2.95,0.07-5.84,3-5.49
				c2.94,0.35,2.33,4.61,2.33,4.61L304,320.46l1.24,0.08c0.69-1.97,3.09-12.27,3.46-14.81c0.4-2.78,0.57-5.52,3.46-4.95
				c2.9,0.57,1.93,4.55,1.93,4.55l-1.93,17.4l0.91,0.47c0,0,2.35-6.72,2.84-8.46c0.49-1.75,1.63-4.64,3.3-3.85
				c1.67,0.79,0.89,3.74,0.89,3.74s-2.65,10.16-3.04,12.7c-0.39,2.54,1.57,6.62-2.16,15.73c-3.73,9.11-5.96,5.75-6.48,13.36
				c-0.52,7.61,1.16,62.41-9.75,83.12c-12.52,23.78-24.09,13.49-38.22,3.7l-20.16-12.59"/>
			<path class="st6" d="M193.46,354.98l5.79,1.22c0,0,9.76,18.76-11.28,22.46c-21.03,3.7-24.17-15.02-24.17-15.02l6.46-3.12"/>
			<path class="st21" d="M162.96,362.48c-0.06-0.1-0.11-0.19-0.17-0.3"/>
			<path class="st21" d="M156.31,364.4c0,0,0.34,0.54,0.95,1.43"/>
			<path class="st22" d="M78.22,473.03c0,0,9.97-5.34,26.55-4.86c16.59,0.49,29.1,6.48,29.1,6.48l-2.68,20.79l135.35-5.89
				l-0.88-21.76c0,0-10.35-15.71-3.46-37.91c1.81-5.84,6.53-17.59,11.36-21.68l1.43-4.41c0,0-36.04-30.04-43.16-34.55
				c-7.12-4.51-29.85-11.58-29.85-11.58c-0.42-0.48-2.23-0.68-2.81-0.72c0,0-0.39-0.09-0.39,0.22c0,0.31,5.44,9.74-0.35,17.3
				c-5.77,7.52-22.57,10.14-35.49-11.99c-0.59-0.97-1.05-1.25-1.46-1.18c-0.41,0.07-4.73,1.85-5.2,2.22c-0.46,0.38,0,0.88,0,0.88
				s-27.72,7.66-34.06,13.51c-6.33,5.85-10.98,10.56-12.69,15.94c-1.71,5.38-6.46,24.51-10.1,28.87
				C95.82,427.09,80.01,463.66,78.22,473.03z"/>
			<path class="st15" d="M199.25,356.2c0,0-2.03,0-3.61-0.97"/>
			<polygon class="st23" points="177.24,573.89 135.3,511.99 246.71,475.87 305.76,501.51 			"/>
			<path class="st15" d="M162.85,361.32c-0.59-0.97-1.05-1.24-1.46-1.18c-0.41,0.06-4.73,1.85-5.19,2.22s0,0.88,0,0.88
				s7.42,11.72,14.64,16.12c6.79,4.14,17.01,6.51,25.95,3.64c9.13-2.94,9.86-14.24,8.85-18.63c-1.01-4.39-2.59-6.52-3.76-7.86
				c-0.42-0.48-2.23-0.68-2.81-0.72c0,0-0.39-0.09-0.39,0.22s5.44,9.74-0.35,17.3c-5.79,7.56-22.72,10.16-35.66-12.29"/>
			<path class="st15" d="M201.88,356.51c0,0,22.73,7.07,29.85,11.57c7.12,4.51,43.16,34.55,43.16,34.55"/>
			<path class="st15" d="M141.53,416.82c-3.29-11.44-3.88-16.37-14.4-21.94"/>
			<path class="st15" d="M273.46,408.3"/>
			<path class="st15" d="M279.14,454.02c-2.68,7.2-7.11,14.7-13.58,12.61c0,0-33.08-26.68-34.41-29.11"/>
			<path class="st15" d="M227.85,398.25c0,0,4.65,44.85,3.86,47.25c-0.79,2.4-5.56,3.81-6.77,9.4s0.55,10.56-1.41,13.38
				s-3.56,4.75-8.86,7.07c-5.3,2.31-12.68,8.2-24.41,7.52c-11.73-0.68-13.83-3.84-21.64-1.92s-11.85,4.18-16.09,2.63"/>
			<path class="st15" d="M305.55,511.22c0,0-1.15-7.35-6.89-8.52s-26.19,3.04-38.93,28.11c0,0-4.84,13.54-4.68,19.28"/>
			<path class="st15" d="M291.13,503.26c0,0,12.6,3.55,16.83,11.18c4.24,7.63,7.91,25.06-4.84,39.49
				c-12.12,13.72-26.11,22.38-45.06,32.79"/>
			<line class="st15" x1="252.38" y1="553.49" x2="227.84" y2="543.5"/>
			<path class="st15" d="M241.05,561.42c0.47-0.69,0.85-2.04,0.39-4.69c-0.88-5.1-31.1-25.8-31.1-25.8"/>
			<path class="st15" d="M120.95,504.04c-4.95,9.9-10.46,27.99-6.78,38.52c4.41,12.62,19.24,25.32,23.4,26.76
				c4.16,1.44,15.4,12.28,22.64,19.03c7.24,6.76,17.52,14.9,17.52,14.9c2.5-6.91,15.05-25.02,21.3-27.96
				c6.26-2.94,10.5-24.4,14.98-25.85c4.48-1.44,22.77,4.09,27.51,7.74"/>
			<path class="st15" d="M214.67,591.1c0,0-12.37-5.88-24.4-7.57"/>
			<path class="st15" d="M244.05,563.88c3.12-3.58,5.82-6.96,8.33-10.39c8.69-11.87,37.26-28.4,37.26-28.4"/>
			<path class="st15" d="M220.39,617.74c-6.49-1.98-12.3-6.11-16.3-11.59c-1.83-2.5-3.3-5.28-5.45-7.5
				c-2.89-2.99-6.96-4.81-11.11-4.97c-1.2-0.05-2.43,0.05-3.51,0.58c-1.24,0.62-2.13,1.75-2.85,2.93c-4.7,7.58-5.7,14.8,1.57,20.54
				c3.99,3.15,9.04,10.42,11.97,14.56c1.73,2.44,2.7,5.32,3.93,8.05c2.75,6.12,8.64,16.17,14.08,20.09
				c7.11,5.12,21.58,3.74,23.29-4.71"/>
			<path class="st15" d="M219.34,611.98c0,0-5.6-2.58-8.19-5.53s-3.48-6.97-8.68-11.82c-5.2-4.85-9.76-4.61-9.76-4.61"/>
			<path class="st15" d="M184.02,594.26c0,0,9.44-5.31,14.08-5.9c4.64-0.58,8.86-0.41,8.86-0.41"/>
			<path class="st15" d="M290.25,680c-0.13-3.1-1.93-5.84-4.17-7.42c-2.24-1.58-4.86-2.17-7.45-2.51c-1.95-0.26-3.98-0.39-5.8,0.45
				c-1.71,0.78-3.09,2.34-4.41,3.85c-2.45,2.8-5.05,5.95-5.44,9.97c-0.34,3.51,1.09,6.88,2.48,10"/>
			<path class="st15" d="M251.05,687.18c2.25,3.27,3.84,4.65,7.14,6.85c2.81,1.87,5.15,2.52,8.16,1.01
				c1.15-0.58,3.54-0.82,4.82-0.69c0.78,0.08,1.45,0.58,2.05,1.1c1.67,1.43,3.16,3.08,4.41,4.89c0,0,16.56,14.37,21.07,17.57
				c4.51,3.2,4.67,5.12,2.02,6.97c-2.65,1.85-5.35,1.48-7.23,6.75c-0.71,1.99-1.72,8.26-1.72,8.26"/>
			<path class="st15" d="M250.22,679.79c0,0-4.5,3.61-2.7,10.88c1.79,7.27,7.29,9.65,7.29,9.65"/>
			<path class="st15" d="M248.82,702.61c5.84,2.65,10.48,7.83,12.45,13.94"/>
			<path class="st15" d="M290.25,680c-2.88,1.7-0.31,7.22,3.53,12.86c4.61,6.78,9.9,12.13,15.4,18.16c0.86,0.94,3.06,2.5,5.24,1.42
				c3.12-1.56,3.94-2.86,6.34-2.86c0,0,18.75,6.1,24.28,23.02c0,0,1.42,7.39,1.42,16.79c0,0-5.11,16.04-30.42,17.41
				c-25.31,1.37-30.49-21.69-42-32.13c-11.51-10.44-15.48-13.79-16.33-14.82c-0.85-1.03-9.68-9.82-9.85-27.28"/>
			<path class="st15" d="M314.42,712.43c3.12-1.56,3.94-2.86,6.34-2.86"/>
			<path class="st15" d="M290.25,680c-2.88,1.7-0.31,7.22,3.53,12.86"/>
			<path class="st15" d="M345.58,735.16c0,0-3.31,16.03-21.61,19.38c-20.39,3.73-37.86-13.68-41.53-20.39
				c-3.73-6.84-15.69-12.8-21.17-14.8s-9.43-8.39-9.43-8.39"/>
			<path class="st15" d="M284.9,671.86c0,0,4.97,2.45,8.46,7.93c3.48,5.49,12.27,23.84,27.41,29.79"/>
			<path class="st15" d="M336.05,725.35c0,0-8.75,24.18-37.34,7.69"/>
			<path class="st15" d="M311.23,709.58c0,0-6.76,0.13-12.52,12.12"/>
			<path class="st15" d="M305.58,703.92c0,0-10.22,0.86-14.46,12.54"/>
			<path class="st15" d="M292.27,685.77c-2.78-0.79-7.9,3.24-11.41,5.64c-3.51,2.4-6.61,5.5-8.54,9.29"/>
			<path class="st15" d="M296,691.84c-3.53-1.32-14.58,6.1-16.85,13.83"/>
			<path class="st15" d="M300.46,698.17c-3.12-1.16-13.25,6.23-16.35,13.22"/>
			<path class="st15" d="M298.66,502.7c0,0-39.65-20.44-47.71-22.04s-8.9-5.98-13.89-4.79c-4.99,1.19-13.81,0-13.81,0l-1.87-4.84"/>
			<line class="st15" x1="198.64" y1="598.64" x2="180.54" y2="615.67"/>
			<line class="st15" x1="204.09" y1="606.14" x2="187.78" y2="622.97"/>
			<line class="st15" x1="212.85" y1="614.28" x2="194.71" y2="632.28"/>
			<line class="st15" x1="221.71" y1="619.89" x2="200.24" y2="643.63"/>
			<line class="st15" x1="229.58" y1="640.97" x2="212.72" y2="660.43"/>
			<path class="st15" d="M225.22,630.02l-19.2,23.15"/>
			<path class="st15" d="M265.4,614.56c0,0-1.81,21.74-38.89,18.87"/>
			<path class="st7" d="M267.8,629.92c0,0-7.95,17.8-35.1,14.87"/>
			<path class="st15" d="M299.31,558.02c0,0-12.26-7.28-19.73-25.06"/>
			<g>
				<path class="st15" d="M272.61,413.95c1.17-5.99-0.24-7.02,7.3-21.26c7.54-14.24,8.98-28.08,8.54-37.74
					c-0.16-3.44,0.25-4.49-4.96-13.21s-3.37-7.39-4.93-10.65c-1.66-3.45-0.72-6.27,1.89-3.8c2.62,2.47,5.28,4.31,7.5,5.24
					c2.22,0.93,4.62-0.74,8.38,3.84"/>
				<path class="st15" d="M260.04,443.24c14.13,9.79,25.7,20.08,38.22-3.7c10.9-20.71,9.23-75.51,9.75-83.12s2.75-4.25,6.48-13.36
					c3.74-9.11,1.77-13.19,2.16-15.73c0.39-2.54,3.04-12.7,3.04-12.7s0.78-2.95-0.89-3.74c-1.67-0.79-2.82,2.1-3.31,3.85
					c-0.48,1.75-2.84,8.46-2.84,8.46l-0.91-0.47l1.93-17.4c0,0,0.97-3.98-1.93-4.55s-3.06,2.17-3.46,4.95
					c-0.37,2.54-2.77,12.85-3.46,14.82l-1.24-0.08l0.36-18.41c0,0,0.61-4.26-2.33-4.61c-2.94-0.35-2.86,2.54-3,5.49
					c-0.14,2.7-1.12,13.89-1.64,16.21c-0.12,0.51-1.35,0.89-1.68-0.55c-0.33-1.44-2.31-14.74-2.69-15.38s-0.71-1.99-2.42-1.68
					c-1.72,0.31-1.95,2.22-1.77,4.49c0.18,2.28,0.91,12.79,1.01,14.44c0.1,1.65-1.45,12.07-1.45,12.07"/>
			</g>
			<g>
				<path class="st15" d="M272.61,413.95c1.17-5.99-0.24-7.02,7.3-21.26c7.54-14.24,8.98-28.08,8.54-37.74
					c-0.16-3.44,0.25-4.49-4.96-13.21s-3.37-7.39-4.93-10.65c-1.66-3.45-0.72-6.27,1.89-3.8c2.62,2.47,5.28,4.31,7.5,5.24
					c2.22,0.93,4.62-0.74,8.38,3.84"/>
				<path class="st15" d="M260.04,443.24c14.13,9.79,25.7,20.08,38.22-3.7c10.9-20.71,9.23-75.51,9.75-83.12s2.75-4.25,6.48-13.36
					c3.74-9.11,1.77-13.19,2.16-15.73c0.39-2.54,3.04-12.7,3.04-12.7s0.78-2.95-0.89-3.74c-1.67-0.79-2.82,2.1-3.31,3.85
					c-0.48,1.75-2.84,8.46-2.84,8.46l-0.91-0.47l1.93-17.4c0,0,0.97-3.98-1.93-4.55s-3.06,2.17-3.46,4.95
					c-0.37,2.54-2.77,12.85-3.46,14.82l-1.24-0.08l0.36-18.41c0,0,0.61-4.26-2.33-4.61c-2.94-0.35-2.86,2.54-3,5.49
					c-0.14,2.7-1.12,13.89-1.64,16.21c-0.12,0.51-1.35,0.89-1.68-0.55c-0.33-1.44-2.31-14.74-2.69-15.38s-0.71-1.99-2.42-1.68
					c-1.72,0.31-1.95,2.22-1.77,4.49c0.18,2.28,0.91,12.79,1.01,14.44c0.1,1.65-1.45,12.07-1.45,12.07"/>
			</g>
			<path class="st15" d="M265.56,466.63c0,0-10.35-15.71-3.46-37.91c1.81-5.84,6.54-17.59,11.37-21.68"/>
			<path class="st15" d="M120.82,361.73"/>
			<path class="st6" d="M123.56,474.34c16.07,3.23,49.37,17.12,49.37,17.12s8.3,0.67,11.94,3.25c3.64,2.58,14.25,10.31,14.25,10.31
				l-15.3,15.94c-0.79-1.94-6.2-6.28-6.2-6.28c-3.76-2.04-20.56-4.16-20.56-4.16c-44.83-4.36-60.67-16.62-61.7-22.71
				c-1.03-6.09,4.54-20.93,4.54-20.93l24.16,3.04L123.56,474.34z"/>
			<path class="st15" d="M156.2,363.24c0,0-27.73,7.66-34.06,13.51s-10.99,10.56-12.7,15.94c-1.71,5.38-6.46,24.51-10.1,28.87
				S79.9,462.5,78.11,471.87c0,0,9.97-5.34,26.55-4.85s29.1,6.48,29.1,6.48s3.21-13.91,2.4-21.14c-0.82-7.22,2.64-20.17,3.48-22.93
				c0.84-2.76,1.74-9.19,1.74-9.19"/>
			<path class="st15" d="M95.45,484.09c-8.31-0.74-11.71-8.1-17.33-12.22"/>
			<path class="st15" d="M133.77,473.49c0,0-1.93,0.85-5.14,1.85"/>
			<path class="st15" d="M173.13,491.64c0,0-33.3-13.89-49.37-17.12c-0.89-0.18-1.73-0.33-2.51-0.44"/>
			<line class="st15" x1="124.27" y1="470.1" x2="123.76" y2="474.52"/>
			<path class="st15" d="M100.11,467.06c0,0-5.57,14.84-4.54,20.93c1.03,6.09,16.87,18.36,61.7,22.71c0,0,16.8,2.12,20.56,4.16
				c0,0,5.41,4.34,6.2,6.28"/>
			<path class="st15" d="M225.36,243.38c0,0,21.12,54.76,7.56,76.09c-10.65,16.76-27.94,18.35-32.63,20.9
				c-4.69,2.54-9.89,4.24-2.86,22.35"/>
			<path class="st15" d="M136.02,308.13c-8.84-6.02-15.18,4.61-10.47,14.91c4.71,10.3,18,4.05,18,4.05
				c9.11,16.19,23.45,15.4,26.34,18.75s1.3,13.11,1.3,13.11s0.07,2.56-7.38,4.69"/>
			<path class="st15" d="M228.41,551.62c0,0,24.7,17.41,27.36,26.15c2.66,8.74,21.71,85.67,25.19,92.7"/>
			<path class="st15" d="M251.05,687.18c0,0,1.13-6.16-3.37-12.08c-4.5-5.91-26.98-43.31-33.45-86.74"/>
			<polygon class="st24" points="317.71,411.98 150.31,459.85 177.24,573.89 321.99,518.48 			"/>
			<circle class="st25" cx="243.01" cy="490.53" r="12.03"/>
		</g>
	</g>
	<g>
		<path d="M224.88,152.11c5.54-0.4,9.12-1.22,10.76-2.48c1.64-1.25,2.46-4.5,2.46-9.75V79.34c0-5.01-0.82-8.23-2.46-9.67
			c-1.64-1.44-5.23-2.29-10.76-2.56v-2.52h40.27v2.52c-5.54,0.27-9.13,1.12-10.76,2.56c-1.64,1.44-2.46,4.66-2.46,9.67v60.54
			c0,5.24,0.82,8.49,2.46,9.75c1.64,1.26,5.23,2.08,10.76,2.48v2.53h-40.27V152.11z"/>
		<path d="M295.02,87.63c-3.21,3.86-6.72,6.64-10.53,8.32l-1.26-2.66c3.1-1.78,5.75-3.97,7.94-6.57c2.19-2.6,3.29-5.26,3.29-7.98
			c0-0.62-0.18-1.07-0.53-1.33c-0.36-0.27-0.78-0.4-1.26-0.4c-2.62,0.31-4.14,0.46-4.59,0.46c-1.73,0-3.39-0.6-4.98-1.79
			c-1.59-1.2-2.39-2.97-2.39-5.32c0-1.73,0.64-3.44,1.93-5.15c1.29-1.71,3.39-2.56,6.31-2.56c3.06,0,5.64,1.17,7.74,3.5
			c2.1,2.33,3.16,5.23,3.16,8.69C299.84,79.51,298.23,83.77,295.02,87.63z"/>
		<path d="M327.95,125.33c4.08-2.66,12.21-6.27,24.39-10.83v-5.65c0-4.52-0.44-7.66-1.33-9.44c-1.51-2.97-4.63-4.45-9.37-4.45
			c-2.26,0-4.41,0.58-6.45,1.73c-2.04,1.2-3.06,2.84-3.06,4.92c0,0.53,0.11,1.43,0.33,2.69c0.22,1.26,0.33,2.07,0.33,2.43
			c0,2.48-0.82,4.21-2.46,5.18c-0.93,0.58-2.04,0.86-3.32,0.86c-1.99,0-3.52-0.65-4.58-1.96c-1.06-1.31-1.6-2.76-1.6-4.35
			c0-3.1,1.92-6.35,5.75-9.74c3.83-3.39,9.45-5.08,16.85-5.08c8.59,0,14.42,2.79,17.48,8.37c1.64,3.06,2.46,7.51,2.46,13.36v26.65
			c0,2.57,0.18,4.34,0.53,5.32c0.58,1.73,1.77,2.59,3.59,2.59c1.02,0,1.86-0.15,2.53-0.46c0.66-0.31,1.82-1.06,3.46-2.26v3.46
			c-1.42,1.73-2.95,3.15-4.58,4.25c-2.48,1.68-5.01,2.52-7.58,2.52c-3.01,0-5.19-0.97-6.54-2.92c-1.35-1.95-2.09-4.27-2.23-6.98
			c-3.37,2.92-6.25,5.1-8.64,6.51c-4.03,2.39-7.86,3.59-11.5,3.59c-3.81,0-7.11-1.34-9.9-4.02c-2.79-2.68-4.19-6.08-4.19-10.2
			C318.31,134.99,321.52,129.62,327.95,125.33z M352.33,117.82c-5.09,1.68-9.3,3.54-12.63,5.58c-6.38,3.94-9.57,8.42-9.57,13.42
			c0,4.03,1.33,7,3.99,8.9c1.73,1.24,3.66,1.86,5.78,1.86c2.92,0,5.73-0.82,8.41-2.46c2.68-1.64,4.02-3.72,4.02-6.25V117.82z"/>
		<path d="M375.93,152.91c3.46-0.31,5.76-0.89,6.91-1.73c1.77-1.28,2.66-3.85,2.66-7.71v-34.36c0-3.28-0.43-5.43-1.29-6.45
			c-0.86-1.02-2.29-1.53-4.29-1.53c-0.93,0-1.63,0.04-2.09,0.13c-0.46,0.09-1.01,0.24-1.63,0.47v-2.33l4.78-1.6
			c1.73-0.58,4.56-1.62,8.51-3.12c3.94-1.51,6.02-2.26,6.25-2.26c0.22,0,0.35,0.11,0.4,0.33c0.04,0.22,0.07,0.64,0.07,1.26V103
			c4.39-3.99,8.17-6.75,11.36-8.27c3.19-1.53,6.47-2.29,9.83-2.29c4.56,0,8.2,1.55,10.9,4.65c1.42,1.68,2.59,3.97,3.52,6.84
			c3.28-3.32,6.13-5.78,8.57-7.38c4.21-2.75,8.51-4.12,12.89-4.12c7.13,0,11.9,2.9,14.29,8.71c1.37,3.28,2.06,8.46,2.06,15.55v27.58
			c0,3.15,0.7,5.28,2.09,6.41c1.4,1.13,3.91,1.87,7.54,2.23v1.73h-29.97v-1.86c3.85-0.35,6.39-1.13,7.61-2.33
			c1.22-1.2,1.83-3.63,1.83-7.31V114.5c0-4.3-0.46-7.46-1.4-9.5c-1.64-3.63-4.85-5.45-9.64-5.45c-2.88,0-5.74,0.95-8.57,2.86
			c-1.64,1.11-3.66,2.88-6.05,5.32v34.02c0,3.59,0.63,6.31,1.89,8.17c1.26,1.86,3.93,2.86,8.01,2.99v1.73h-30.5v-1.73
			c4.21-0.53,6.89-1.55,8.04-3.06c1.15-1.51,1.73-5.23,1.73-11.16v-18.57c0-6.81-0.44-11.49-1.33-14.06
			c-1.46-4.34-4.56-6.51-9.3-6.51c-2.7,0-5.36,0.74-7.97,2.23c-2.61,1.48-4.92,3.42-6.91,5.81v36.35c0,3.37,0.59,5.69,1.76,6.98
			c1.17,1.29,3.73,1.95,7.67,1.99v1.73h-30.24V152.91z"/>
	</g>
	<g>
		<path d="M402.73,252.06c0,8.82,0.09,13.13,0.09,15.7c0,3.03-1.65,4.04-4.87,4.04c-2.85,0-3.67-1.01-3.67-3.31
			c0-4.13,0.37-20.29,0.37-45.73c0-21.85-0.09-27-0.55-34.34c4.5,1.93,5.14,2.2,9.37,4.41h8.17c2.48-3.03,3.21-3.58,3.95-3.58
			c0.92,0,1.56,0.55,4.87,3.77c1.47,1.38,2.02,2.11,2.02,2.85c0,0.83-0.28,1.01-2.57,1.65c-3.95,8.36-6.79,12.86-12.4,20.29
			c8.45,7.62,11.57,13.5,11.57,21.76c0,4.78-1.01,8.08-3.12,10.1c-1.56,1.38-3.49,2.02-6.06,2.02c-1.38,0-1.84-0.55-1.93-2.02
			c-0.37-3.31-1.56-4.59-5.23-5.97V252.06z M402.73,194.94v47.38c2.2,0.28,3.67,0.37,5.79,0.37c1.01,0,1.84-0.09,2.3-0.55
			c1.01-0.83,1.29-2.57,1.29-6.52c0-7.07-1.74-11.66-6.52-17.45c2.2-5.51,5.33-16.71,6.24-23.23H402.73z M451.31,239.02
			c2.85,5.14,6.79,9.18,11.75,12.3c4.22,2.57,9.18,4.5,15.06,5.79c0.46,0.09,0.46,1.1,0,1.29c-2.57,1.1-3.58,2.48-4.78,6.52
			c-0.37,1.65-0.55,1.93-1.19,1.93c-0.83,0-2.11-0.64-3.77-1.65c-3.12-2.11-7.16-5.69-10.01-9.18c-3.12-3.86-5.42-7.99-8.72-16.07
			c0.28,13.22,0.73,24.79,0.73,28.65c0,2.48-1.56,3.49-5.14,3.49c-2.48,0-3.4-0.73-3.4-2.85c0-2.02,0.28-11.75,0.55-23.14
			c-7.62,9.27-20.66,17.54-32.51,21.12c-0.46,0.09-0.83-0.64-0.46-0.92c11.57-6.98,21.86-16.99,27.82-27.27h-6.89v0.64
			c0,2.3-1.65,3.4-4.96,3.4c-2.39,0-3.31-0.92-3.31-2.94c0-2.94,0.37-5.88,0.37-17.81c0-5.14-0.09-10.28-0.37-15.43
			c4.04,1.65,5.23,2.2,9,4.5h10.93v-9.83h-14.69c-1.74,0-3.49,0.18-5.88,0.55l-1.01-3.4c2.75,0.55,4.78,0.73,6.89,0.73h14.69v-1.93
			c0-4.41-0.09-6.43-0.46-10.47c11.2,1.38,11.29,1.38,11.29,2.94c0,0.83-0.55,1.19-2.85,2.3v7.16h11.39c4.5-5.23,5.6-5.97,6.24-5.97
			c0.83,0,1.84,0.73,6.06,4.13c1.93,1.56,2.66,2.39,2.66,3.03c0,0.64-0.28,0.92-1.19,0.92h-25.16v9.83h11.2
			c2.94-3.49,3.67-4.04,4.41-4.04c0.92,0,1.65,0.55,4.96,3.21c1.47,1.29,2.02,1.93,2.02,2.66c0,0.92-0.64,1.56-2.57,2.66v4.04
			c0,10.56,0.37,17.81,0.37,20.2c0,2.11-1.56,3.31-4.68,3.31c-2.57,0-3.67-0.83-3.67-2.66v-1.74H451.31z M430.37,213.49v10.19h11.66
			v-10.19H430.37z M442.03,225.79h-11.66v11.11h11.66V225.79z M450.02,223.68h12.03v-10.19h-12.03V223.68z M462.05,236.9v-11.11
			h-12.03v11.11H462.05z"/>
		<path d="M417.15,310.64c-6.15,17.45-13.41,28.47-24.88,38.11c-0.37,0.28-1.29-0.46-1.01-0.83c6.15-8.72,11.29-20.11,14.33-31.22
			c1.19-4.59,2.11-9.09,2.57-13.41c11.11,2.66,13.22,3.58,13.22,4.96C421.37,309.27,420.27,309.91,417.15,310.64z M429.36,293.93
			c0-6.89,0-7.35-0.64-12.86c11.66,1.19,13.31,1.56,13.31,2.94c0,1.1-0.83,1.74-3.58,2.57v32.97c0,18.09,0.46,28.28,0.46,33.61
			c0,3.86-0.73,5.97-3.03,7.53c-1.93,1.29-5.23,2.11-7.99,2.11c-1.93,0-2.57-0.64-2.85-2.3c-0.28-3.4-2.66-5.6-10.56-7.9
			c-0.46-0.09-0.46-1.29,0-1.29c4.41,0.37,9.92,0.73,13.41,0.73c1.1,0,1.47-0.28,1.47-1.29V293.93z M467.56,345.91
			c-3.4,0-4.32-2.02-5.79-10.56c-1.93-11.48-6.98-22.5-13.5-30.58c-0.28-0.37,0.64-1.01,1.01-0.73
			c14.05,10.56,24.15,25.16,24.15,34.71C473.44,343.06,471.23,345.91,467.56,345.91z"/>
		<path d="M412.37,402.75c3.03-3.49,3.77-4.04,4.5-4.04c0.92,0,1.65,0.55,4.59,3.03c1.29,1.19,1.84,1.84,1.84,2.57
			c0,0.92-0.73,1.75-2.39,2.57c-1.65,11.2-4.32,19.93-8.63,27.09c0.74,0.83,1.56,1.56,2.39,2.2c7.25,5.97,15.79,7.99,32.69,7.99
			c9.92,0,15.15-0.37,29.29-1.84c0.46-0.09,0.37,0.73,0,0.92c-2.94,1.65-3.58,2.85-4.04,6.52c-0.18,1.56-0.46,1.84-2.85,2.11
			c-3.4,0.37-10.47,0.55-16.35,0.55c-21.12,0-31.77-2.75-40.31-10.65c-1.29-1.19-2.48-2.39-3.58-3.67
			c-4.41,5.79-10.1,10.47-17.54,14.69c-0.37,0.18-1.19-0.64-0.83-0.92c6.15-5.88,10.93-12.12,14.42-19.47
			c-2.11-3.67-3.86-8.17-5.88-14.23c-0.46-1.47-0.64-1.84-1.47-2.48c-0.46-0.37-0.74-0.73-0.74-1.01c0-0.55,2.11-1.47,3.67-1.47
			c0.55,0,0.92,0.28,0.92,0.74c0,0.28-0.64,1.38-0.64,1.74s0.09,1.01,0.28,1.75c1.19,3.86,3.12,7.53,5.6,10.93
			c2.66-6.89,4.41-14.51,5.42-23.42h-7.07c-0.73,1.29-1.38,2.48-2.02,3.49c-1.29,2.02-1.93,2.48-3.4,2.48
			c-2.66,0-5.05-1.65-5.05-3.12c0-0.46,0.09-0.92,0.46-1.65c7.35-12.31,9.73-16.9,13.87-26.17h-10.19c-2.66,0-4.22,0.18-5.88,0.55
			l-0.83-3.49c1.93,0.55,3.58,0.73,6.52,0.83h10.19c3.21-3.67,3.95-4.22,4.68-4.22c0.92,0,1.56,0.55,4.68,3.49
			c1.29,1.29,1.84,2.02,1.84,2.75c0,1.01-0.55,1.47-3.03,2.57c-1.84,3.86-6.52,12.95-10.65,20.29H412.37z M441.94,406.24h-9.64
			c-2.02,0-3.95,0.18-6.61,0.55l-1.01-3.4c3.03,0.55,5.33,0.73,7.62,0.73h9.64V385.4c-5.6,0.83-11.66,1.38-18.64,1.65
			c-0.46,0-0.64-1.01-0.18-1.1c10.19-2.3,19.65-5.33,26.72-8.45c4.96-2.2,8.72-4.41,10.74-6.43c8.54,5.97,8.82,6.24,8.82,7.44
			c0,0.92-1.19,1.47-4.41,1.1c-4.68,1.74-9.46,3.12-14.51,4.22v20.29h9.92c4.22-4.96,5.33-5.69,5.97-5.69
			c0.83,0,1.74,0.73,5.51,4.04c1.56,1.38,2.29,2.2,2.29,2.85c0,0.64-0.28,0.92-1.19,0.92h-22.5v24.06h6.89
			c4.13-4.96,5.23-5.69,5.88-5.69c0.83,0,1.74,0.74,5.51,3.95c1.65,1.47,2.39,2.29,2.39,2.94c0,0.64-0.28,0.92-1.19,0.92h-36.73
			c-1.93,0-3.95,0.18-6.52,0.55l-1.01-3.4c3.03,0.55,5.23,0.73,7.53,0.73h8.72V406.24z"/>
	</g>
</g>
</svg>
